<?xml version="1.0" encoding="UTF-8" standalone="no"?>
<!-- Uploaded to: SVG Repo, www.svgrepo.com, Generator: SVG Repo Mixer Tools -->

<svg
   fill="#000000"
   version="1.1"
   id="Capa_1"
   width="800px"
   height="800px"
   viewBox="0 0 206.326 206.326"
   xml:space="preserve"
   xmlns="http://www.w3.org/2000/svg"
   xmlns:svg="http://www.w3.org/2000/svg"><defs
   id="defs2" />
<g
   id="g2"
   style="stroke:#000000;fill:none">
	<g
   id="g1"
   style="stroke:#000000;fill:none">
		<path
   d="m 124.651,111.847 c 1.169,-9.53 -4.141,-22.308 -4.141,-22.308 -1.163,-5.2 0.542,-23.727 0.542,-23.727 2.381,3.705 2.29,10.245 2.29,10.245 -0.378,6.859 5.541,17.342 5.541,17.342 2.844,4.332 3.921,8.442 3.921,8.747 0,1.248 -0.273,4.269 -0.273,4.269 l 0.109,2.631 c 0.049,0.67 0.426,2.977 0.365,4.092 -0.444,6.862 0.646,5.571 0.646,5.571 0.92,0 1.931,-5.522 1.931,-5.522 0,1.424 -0.348,5.687 0.42,7.295 0.919,1.918 1.595,-0.329 1.607,-0.78 0.243,-8.737 0.768,-6.448 0.768,-6.448 0.511,7.088 1.139,8.689 2.265,8.135 0.853,-0.407 0.073,-8.506 0.073,-8.506 1.461,4.811 2.569,5.577 2.569,5.577 2.411,1.693 0.92,-2.983 0.585,-3.909 -1.784,-4.92 -1.839,-6.625 -1.839,-6.625 2.229,4.421 3.909,4.257 3.909,4.257 2.174,-0.694 -1.9,-6.954 -4.287,-9.953 -1.218,-1.528 -2.789,-3.574 -3.245,-4.789 -0.743,-2.058 -1.304,-8.674 -1.304,-8.674 -0.225,-7.807 -2.155,-11.198 -2.155,-11.198 -3.3,-5.282 -3.921,-15.135 -3.921,-15.135 l -0.146,-16.635 c -1.157,-11.347 -9.518,-11.429 -9.518,-11.429 -8.451,-1.258 -9.627,-3.988 -9.627,-3.988 -1.79,-2.576 -0.767,-7.514 -0.767,-7.514 1.485,-1.208 2.058,-4.415 2.058,-4.415 2.466,-1.891 2.345,-4.658 1.206,-4.628 -0.914,0.024 -0.707,-0.733 -0.707,-0.733 C 115.068,0.636 104.01,0 104.01,0 h -1.688 c 0,0 -11.063,0.636 -9.523,13.089 0,0 0.207,0.758 -0.715,0.733 -1.136,-0.03 -1.242,2.737 1.215,4.628 0,0 0.572,3.206 2.058,4.415 0,0 1.023,4.938 -0.767,7.514 0,0 -1.172,2.73 -9.627,3.988 0,0 -8.375,0.082 -9.514,11.429 l -0.158,16.635 c 0,0 -0.609,9.853 -3.922,15.135 0,0 -1.921,3.392 -2.143,11.198 0,0 -0.563,6.616 -1.303,8.674 -0.451,1.209 -2.021,3.255 -3.249,4.789 -2.408,2.993 -6.455,9.24 -4.29,9.953 0,0 1.689,0.164 3.909,-4.257 0,0 -0.046,1.693 -1.827,6.625 -0.35,0.914 -1.839,5.59 0.573,3.909 0,0 1.117,-0.767 2.569,-5.577 0,0 -0.779,8.099 0.088,8.506 1.133,0.555 1.751,-1.047 2.262,-8.135 0,0 0.524,-2.289 0.767,6.448 0.012,0.451 0.673,2.698 1.596,0.78 0.779,-1.608 0.429,-5.864 0.429,-7.295 0,0 0.999,5.522 1.933,5.522 0,0 1.099,1.291 0.648,-5.571 -0.073,-1.121 0.32,-3.422 0.369,-4.092 l 0.106,-2.631 c 0,0 -0.274,-3.014 -0.274,-4.269 0,-0.311 1.078,-4.415 3.921,-8.747 0,0 5.913,-10.488 5.532,-17.342 0,0 -0.082,-6.54 2.299,-10.245 0,0 1.69,18.526 0.545,23.727 0,0 -5.319,12.778 -4.146,22.308 13.161093,0.0443 18.078381,0.56613 42.968,0.003 z"
   id="path1"
   style="fill:none;stroke:#000000" />
	</g>
</g>
</svg>
