<?xml version="1.0" encoding="UTF-8" standalone="no"?>
<svg
   width="880"
   height="360"
   viewBox="0 0 880 360"
   version="1.1"
   id="svg127"
   sodipodi:docname="aed-trainer-white.svg"
   inkscape:version="1.4.3 (1:1.4.3+202512261034+0d15f75042)"
   inkscape:export-filename="logo.png"
   inkscape:export-xdpi="96"
   inkscape:export-ydpi="96"
   xmlns:inkscape="http://www.inkscape.org/namespaces/inkscape"
   xmlns:sodipodi="http://sodipodi.sourceforge.net/DTD/sodipodi-0.dtd"
   xmlns="http://www.w3.org/2000/svg"
   xmlns:svg="http://www.w3.org/2000/svg">
  <sodipodi:namedview
     id="namedview127"
     pagecolor="#ffffff"
     bordercolor="#000000"
     borderopacity="0.25"
     inkscape:showpageshadow="2"
     inkscape:pageopacity="0.0"
     inkscape:pagecheckerboard="0"
     inkscape:deskcolor="#d1d1d1"
     inkscape:zoom="1.1329545"
     inkscape:cx="440.88265"
     inkscape:cy="271.41424"
     inkscape:window-width="1870"
     inkscape:window-height="1016"
     inkscape:window-x="50"
     inkscape:window-y="27"
     inkscape:window-maximized="1"
     inkscape:current-layer="svg127"
     showgrid="false" />
  <path
     fill="#0c0f13"
     d="M 0,0 H 880 V 179.99087 360 H 0 V 180.00879 Z"
     id="path1"
     style="stroke-width:0.549659;fill:#0f1d32;fill-opacity:1" />
  <path
     fill="#12ad79"
     d="m 87.6898,59.845373 c 0.53,-5.149 2.688,-37.318 4.305,-39.489 1.487,-0.461 1.376,-0.478 2.862,-0.032 2.406,3.867 3.578,31.082 4.184,37.796 0.675,8.935 1.17,20.421 2.152,29.061 0.129,2.853 0.443,5.841 0.683,8.697 2.115,25.086997 3.671,50.224997 6.176,75.278997 0.545,5.45 1.031,10.601 1.017,16.086 3.867,-17.125 6.045,-34.81 9.797,-51.987 0.469,-2.151 1.154,-4.539 3.371,-5.256 0.488,0.31 1.057,0.517 1.31,1.07 1.528,3.329 -11.311,69.961 -13.807,75.81 -1.332,0.729 -0.617,0.486 -2.283,0.369 -2.514,-3.651 -9.354,-105.472 -11.059,-119.724997 -2.297,0.126 -4.452,0.167 -6.713,0.599 -2.767,20.715997 -3.398,42.987997 -5.782,63.876997 -0.834,7.309 -1.17,17.108 -2.552,24.055 l -25.011,0.029 -29.2021,0.066 -0.2597,-0.164 -0.0984,-4.623 -0.6285,0.034 c -0.1071,-0.894 -1.214,-4.932 -1.4741,-6.241 -1.1295,-5.56 -1.89,-11.188 -2.2763,-16.849 -1.485,-23.685 4.351,-45.591 20.2691,-63.527997 10.465,-11.793 28.985,-24.04 45.02,-24.934 z"
     id="path65" />
  <path
     fill="#2b347a"
     d="m 87.6898,59.845373 c -0.852,8.683 -1.586,22.21 -2.77,30.462 -35.128,14.083997 -38.179,48.482997 -30.134,80.997997 -6.293,0.21 -23.472,-0.499 -28.0062,0.058 l -0.6285,0.034 c -0.1071,-0.894 -1.214,-4.932 -1.4741,-6.241 -1.1295,-5.56 -1.89,-11.188 -2.2763,-16.849 -1.485,-23.685 4.351,-45.591 20.2691,-63.527997 10.465,-11.793 28.985,-24.04 45.02,-24.934 z"
     id="path66" />
  <path
     fill="#0c0f13"
     d="m 84.9198,90.307373 -7.404,80.975997 c -7.577,-0.049 -15.154,-0.041 -22.73,0.022 -8.045,-32.515 -4.994,-66.914 30.134,-80.997997 z"
     id="path67"
     style="fill:#0f1d32;fill-opacity:1" />
  <defs
     id="defs68">
    <linearGradient
       id="gradient_0"
       gradientUnits="userSpaceOnUse"
       x1="161.53278"
       y1="604.61719"
       x2="163.22787"
       y2="633.07574"
       gradientTransform="translate(-70.2172,-546.41763)">
      <stop
         offset="0"
         stop-color="#103B4B"
         id="stop67" />
      <stop
         offset="1"
         stop-color="#2D2F88"
         id="stop68" />
    </linearGradient>
  </defs>
  <path
     fill="url(#gradient_0)"
     d="m 92.4818,57.454373 1.691,0.954 c 0.624,9.661 1.876,19.515 2.225,29.116 -2.297,0.126 -4.452,0.167 -6.713,0.599 1.343,-9.8 2.207,-20.788 2.797,-30.669 z"
     id="path68"
     style="fill:url(#gradient_0)" />
  <path
     fill="#074838"
     d="m 93.2568,49.855373 0.916,8.553 -1.691,-0.954 z"
     id="path69" />
  <path
     fill="#2b347a"
     d="m 363.7108,194.49037 c 19.772,-0.087 49.362,-3.475 64.532,11.907 15.092,15.303 14.305,39.37 -0.721,54.71 -12.836,11.116 -25.701,10.973 -41.815,10.981 l -22.013,-0.026 c -0.266,-25.857 -0.261,-51.715 0.017,-77.572 z"
     id="path70" />
  <path
     fill="#0c0f13"
     d="m 373.7898,203.10537 c 22.793,-0.03 54.039,-3.03 54.643,30.386 0.165,9.145 -1.654,15.239 -8.334,21.989 -13.022,10.592 -29.875,8.156 -46.3,8.122 z"
     id="path71"
     style="fill:#0f1d32;fill-opacity:1" />
  <path
     fill="#2b347a"
     d="m 177.0048,83.451373 c 1.325,1.467 11.035,19.930997 12.657,22.962997 -9.819,15.814 -19.288,34.519 -28.969,50.942 13.135,0.507 28.282,0.132 41.636,0.199 -4.119,8.401 -41.836,72.937 -44.563,75.102 l -16.27,0.24 c 4.83,-17.138 12.021,-35.28 16.464,-52.393 l -38.634,0.438 c 13.186,-20.706 24.517,-42.118 36.752,-63.388 7.337,-12.755 10.809,-22.928997 20.927,-34.102997 z"
     id="path72" />
  <path
     fill="#12ad79"
     d="m 225.6158,62.796373 c 10.213,-0.624 20.44,0.957 29.988,4.637 17.72,6.854 33.878,22.758 41.282,40.121997 9.448,22.157 8.055,45.277 -0.629,67.372 -7.26,-1.526 -14.501,-3.141 -21.722,-4.843 2.9,-7.819 4.568,-15.646 5.707,-23.877 0.127,-4.012 0.221,-7.576 -0.101,-11.601 -2.863,-35.751997 -38.619,-59.503997 -72.033,-44.110997 -5.67,2.612 -10.315,7.343 -14.912,11.561997 -3.716,-6.201997 -7.664,-14.661997 -10.957,-21.271997 12.576,-10.874 26.879,-16.718 43.377,-17.989 z"
     id="path73" />
  <path
     fill="#2b347a"
     d="m 27.1377,176.15037 29.2021,-0.066 c 2.465,5.094 4.922,10.168 7.517,15.197 14.246,27.601 38.282,48.587 65.736,62.214 -2.682,6.52 -6.209,16.987 -8.343,23.703 -6.841,-2.768 -13.492,-5.985 -19.91,-9.628 -34.374,-19.436 -63.584,-53.002 -74.2021,-91.42 z"
     id="path74" />
  <path
     fill="#2b347a"
     d="m 232.2618,194.51037 8.319,0.18 c 3.328,4.652 10.559,20.696 13.249,26.502 l 23.298,50.664 -9.715,0.319 -9.255,-19.788 c -5.432,0.204 -11.283,0.193 -16.75,0.274 -8.538,0.226 -18.264,0.332 -26.757,-0.009 -3.06,6.383 -5.811,12.854 -8.621,19.351 l -10.308,-0.154 c 4.928,-9.543 9.104,-19.617 13.637,-29.376 7.552,-16.027 15.186,-32.015 22.903,-47.963 z"
     id="path75" />
  <path
     fill="#0c0f13"
     d="m 236.0738,205.85837 c 1.415,1.124 15.501,32.9 18.936,38.285 l -17.404,0.007 -19.325,-0.161 c 6.181,-12.592 12.113,-25.305 17.793,-38.131 z"
     id="path76"
     style="fill:#0f1d32;fill-opacity:1" />
  <path
     fill="#2b347a"
     d="m 596.7408,214.23037 c 8.441,-1.048 19.468,-0.352 25.747,6.013 7.798,7.905 6.226,19.586 6.3,29.739 0.053,7.381 0.003,14.749 0.038,22.117 l -9.063,0.052 -0.058,-7.13 c -1.023,1.022 -2.105,1.984 -3.241,2.88 -10.021,7.819 -28.293,6.452 -36.19,-4.188 -2.518,-4.743 -3.889,-12.43 -0.453,-17.03 9.043,-12.11 27.26,-6.247 38.883,-8.598 3.29,-8.681 -4.674,-15.238 -12.974,-15.509 -9.16,-0.299 -14.833,0.569 -22.069,6.676 -1.854,-3.478 -2.377,-4.406 -4.887,-7.405 5.963,-4.58 10.714,-6.276 17.967,-7.617 z"
     id="path77" />
  <path
     fill="#0c0f13"
     d="m 597.3898,245.69737 c 7.077,-0.335 14.701,-0.187 21.83,-0.165 -0.08,10.667 0.487,15.298 -10.455,19.221 -5.945,1.111 -11.303,1.533 -16.818,-1.833 -4.161,-2.538 -7.035,-8.286 -3.718,-12.7 2.325,-3.094 5.475,-3.929 9.161,-4.523 z"
     id="path78"
     style="fill:#0f1d32;fill-opacity:1" />
  <path
     fill="#2b347a"
     d="m 775.0328,214.17437 c 22.756,-0.966 32.623,9.634 33.462,31.834 -16.33,-0.107 -33.333,-0.32 -49.616,0.068 0.438,1.617 0.941,3.677 1.57,5.216 5.355,13.111 20.506,15.446 32.242,10.856 2.881,-1.629 4.124,-2.757 6.66,-4.877 1.668,1.415 3.714,3.747 5.256,5.398 -16.839,17.404 -49.072,10.859 -54.485,-13.793 -3.971,-18.084 7.672,-31.256 24.911,-34.702 z"
     id="path79" />
  <path
     fill="#0c0f13"
     d="m 774.0048,222.18537 c 13.024,-1.141 22.195,2.543 24.853,16.477 -4.583,0.396 -10.507,0.25 -15.2,0.26 -8.309,0.039 -16.618,-0.082 -24.923,-0.362 3.277,-9.66 5.527,-12.872 15.27,-16.375 z"
     id="path80"
     style="fill:#0f1d32;fill-opacity:1" />
  <path
     fill="#2b347a"
     d="m 99.0408,58.120373 c 26.215,-1.002 47.611,8.672 67.763,25.115 -6.191,9.349 -10.126,15.523 -14.357,26.120997 -15.785,-13.209997 -29.3,-22.686997 -51.254,-22.174997 -0.982,-8.64 -1.477,-20.126 -2.152,-29.061 z"
     id="path81" />
  <path
     fill="#2b347a"
     d="m 320.7098,194.82637 c 7.628,-0.137 15.257,-0.163 22.886,-0.077 -0.063,2.691 0.042,5.613 0.085,8.323 l -44.231,0.373 c 0.129,8.313 0.141,16.629 0.036,24.943 10.59,-0.66 28.464,-0.273 39.4,-0.047 l 0.137,8.382 c -12.19,0.571 -27.349,0.245 -39.767,0.277 -0.008,3.694 -0.491,25.287 0.696,26.887 13.817,-0.591 31.698,0.015 45.685,0.169 l -0.267,8.245 c -17.981,-0.556 -37.948,-0.186 -56.065,-0.191 l -0.348,-77.096 z"
     id="path82" />
  <path
     fill="#2b347a"
     d="m 688.2958,223.18437 c 6.522,-6.616 11.35,-8.859 20.801,-9.195 10.571,-0.915 23.355,5.43 24.871,17.035 1.635,12.518 0.901,28.151 0.91,41.051 l -9.315,-0.039 -0.04,-31.965 c -0.445,-23.602 -32.382,-22.023 -35.737,-4.824 -1.681,8.621 -0.962,27.374 -0.972,36.876 -3.11,-0.021 -6.422,0.103 -9.549,0.168 l -0.274,-58.226 9.271,0.048 z"
     id="path83" />
  <path
     fill="#2b347a"
     d="m 474.1258,194.69937 c 20.794,-0.419 42.25,-0.149 63.092,-0.138 l -0.139,8.915 -26.593,-0.025 c 0.138,13.835 0.199,27.67 0.183,41.506 -0.049,9.156 -0.036,18.313 0.04,27.469 l -9.82,0.026 c -0.778,-21.447 -0.124,-47.565 -0.081,-69.355 -8.878,-0.032 -17.755,0.058 -26.63,0.27 z"
     id="path84" />
  <path
     fill="#2b347a"
     d="m 569.0538,213.74337 c 1.313,-0.048 0.884,-0.113 2.074,0.269 1.158,2.234 0.683,6.319 0.603,9.008 -21.332,0.985 -21.009,13.245 -20.554,30.332 0.162,6.071 0.062,12.651 0.097,18.763 l -9.877,0.043 -0.083,-5.951 0.031,-52.135 9.02,0.076 -0.063,9.718 c 4.897,-6.388 11.03,-9.134 18.752,-10.123 z"
     id="path85" />
  <path
     fill="#2b347a"
     d="m 852.0118,213.77437 0.901,0.39 c 0.588,2.423 0.318,6.343 0.27,8.959 l -0.531,-0.004 c -6.012,0.002 -10.844,0.333 -15.326,4.98 -3.951,4.147 -5.098,10.142 -5.113,15.689 -0.027,9.375 0.015,18.751 0.054,28.124 l -9.556,0.005 -0.083,-6.21 0.194,-51.674 8.906,0.062 c -0.014,3.272 0.011,6.544 0.075,9.815 0.577,-0.69 1.167,-1.371 1.768,-2.041 5.711,-6.348 10.404,-7.638 18.441,-8.095 z"
     id="path86" />
  <path
     fill="#2b347a"
     d="m 180.9948,261.28537 0.385,0.032 c -0.164,2.038 -22.434,22.118 -25.689,24.913 -6.932,-0.542 -11.052,-1.467 -17.781,-3.294 -1.182,-0.182 -2.322,-0.412 -3.493,-0.643 0.188,-3.426 9.955,-17.152 12.966,-20.01 11.952,3.496 21.467,0.806 33.612,-0.998 z"
     id="path87" />
  <path
     fill="#2b347a"
     d="m 648.7478,214.07437 9.258,0.035 c 0.214,19.307 0.185,38.617 -0.087,57.923 -2.281,0.175 -6.588,0.055 -9.023,0.065 -0.441,-18.854 -0.11,-39.059 -0.148,-58.023 z"
     id="path88" />
  <path
     fill="#eb7b3b"
     d="m 139.5078,238.57037 16.183,0.11 c -8.579,15.287 -18.923,31.833 -27.877,47.246 -2.432,4.166 -4.56,7.608 -7.25,11.608 2.149,-8.258 5.317,-17.175 7.972,-25.29 z"
     id="path89" />
  <path
     fill="#f9fefd"
     d="m 582.3648,306.72737 c 2.26,-0.029 3.295,-0.102 5.42,0.645 l 3.664,1.271 c 1.205,-1.227 1.206,-1.384 2.849,-2.026 1.493,0.44 0.952,0.012 1.763,1.209 0.819,6.088 1.379,18.138 -1.769,23.411 -3.357,5.623 -14.763,4.548 -19.316,1.308 -0.245,-1.452 0.133,-1.357 1.198,-3.018 4.475,3.425 18.111,3.844 15.986,-5.054 -4.463,1.231 -10.259,2.958 -14.556,0.441 -4.255,-2.492 -5.883,-8.975 -3.126,-13.151 2.208,-3.344 4.09,-4.168 7.887,-5.036 z"
     id="path90" />
  <path
     fill="#0c0f13"
     d="m 581.7258,310.11437 c 4.217,-0.277 7.397,-0.353 9.948,3.689 0.842,1.348 1.049,2.999 0.566,4.514 -0.818,2.628 -2.481,3.56 -4.735,4.814 -1.322,0.16 -3.013,0.344 -4.322,0.112 -2.232,-0.38 -4.185,-1.719 -5.344,-3.663 -2.327,-3.983 0.592,-7.439 3.887,-9.466 z"
     id="path91"
     style="fill:#0f1d32;fill-opacity:1" />
  <path
     fill="#f9fefd"
     d="m 385.1238,298.59237 c 1.599,-0.035 2.567,-0.248 3.886,0.617 0.801,5.563 -0.066,20.539 0.101,26.752 0.026,0.99 -0.729,1.236 -1.442,1.657 -2.031,-0.609 -2.436,-2.601 -2.905,-2.349 -4.714,2.532 -7.794,2.762 -13.298,1.067 -2.525,-1.747 -4.082,-3.341 -4.955,-6.417 -0.799,-2.879 -0.314,-5.963 1.331,-8.458 1.643,-2.522 4.255,-4.254 7.218,-4.786 4.106,-0.759 6.689,0.465 9.984,2.647 z"
     id="path92" />
  <path
     fill="#0c0f13"
     d="m 376.9378,309.56037 c 4.023,-0.463 7.684,2.358 8.261,6.366 0.578,4.007 -2.138,7.747 -6.128,8.439 -2.684,0.465 -5.408,-0.565 -7.113,-2.69 -1.704,-2.125 -2.12,-5.008 -1.084,-7.527 1.035,-2.519 3.358,-4.277 6.064,-4.588 z"
     id="path93"
     style="fill:#0f1d32;fill-opacity:1" />
  <path
     fill="#f9fefd"
     d="m 808.2838,307.13937 c 8.378,-0.691 17.159,2.08 14.509,13.486 -0.719,3.093 -4.581,5.351 -7.465,6.499 -15.527,1.728 -21.093,-13.751 -7.044,-19.985 z"
     id="path94" />
  <path
     fill="#0c0f13"
     d="m 809.0118,310.32137 c 2.492,-0.994 5.328,-0.553 7.4,1.151 2.072,1.705 3.052,4.402 2.558,7.039 -0.495,2.637 -2.386,4.796 -4.935,5.634 -3.776,1.24 -7.855,-0.742 -9.212,-4.478 -1.357,-3.735 0.497,-7.873 4.189,-9.346 z"
     id="path95"
     style="fill:#0f1d32;fill-opacity:1" />
  <path
     fill="#f9fefd"
     d="m 330.2468,300.10737 c 1.797,-0.027 2.081,-0.028 3.839,0.263 1.645,1.588 11.242,22.417 13.381,26.329 -1.074,1.407 -0.405,0.96 -2.02,1.471 -1.974,-0.79 -3.877,-5.175 -5.366,-6.931 -1.13,-1.333 -1.747,-0.89 -3.757,-0.819 l -11.954,0.083 c -0.919,2.163 -1.774,4.854 -3.425,6.367 -1.431,0.178 -1.723,0.025 -3.122,-0.258 0.429,-1.964 10.63,-22.526 12.424,-26.505 z"
     id="path96" />
  <path
     fill="#0c0f13"
     d="m 332.0808,304.92137 c 1.329,1.305 5.493,10.171 6.699,12.538 l -3.872,-0.257 -8.644,-0.089 c 1.948,-3.772 3.967,-8.308 5.817,-12.192 z"
     id="path97"
     style="fill:#0f1d32;fill-opacity:1" />
  <path
     fill="#f9fefd"
     d="m 663.3368,306.71337 c 3.288,0.337 2.181,-0.204 4.37,1.806 6.223,-2.016 8.986,-3.47 14.607,0.808 10.801,-5.334 18.649,-2.884 18.098,10.166 -0.103,2.439 0.34,4.941 -0.472,7.305 l -0.971,0.408 c -7.676,-1.496 3.972,-17.165 -9.649,-17.174 l -0.696,0.006 c -7.832,2.679 -2.764,12.812 -5.058,17.031 -1.237,0.268 -1.329,0.105 -2.584,-0.249 -3.3,-3.656 0.656,-10.496 -1.855,-14.595 -1.511,-2.469 -5.541,-3.587 -8.062,-1.887 -6.256,4.216 -2.62,10.534 -4.013,16.137 -1.083,0.92 -0.975,0.583 -2.881,0.492 -1.629,-1.772 -0.885,-16.81 -0.834,-20.254 z"
     id="path98" />
  <path
     fill="#f9fefd"
     d="m 762.5348,306.75637 c 9.697,0 10.931,4.158 11.132,13.473 0.047,2.156 0.028,5.081 -1.015,6.958 -1.607,0.381 -1.509,0.339 -3.154,0.058 l -0.416,-1.72 c -6.175,0.254 -5.307,5.185 -13.822,-0.403 -5.812,-11.657 11.499,-7.886 14.278,-11.134 l -0.132,-1.071 c -4.643,-6.334 -12.995,0.787 -14.466,-3.716 l 0.572,-0.811 c 2.557,-1.175 4.276,-1.264 7.023,-1.634 z"
     id="path99" />
  <path
     fill="#0c0f13"
     d="m 760.6828,318.15737 c 3.171,-0.164 7.145,-1.005 8.963,2.116 -0.201,2.354 -2.073,3.149 -3.928,4.178 -3.137,0.611 -7.094,0.56 -7.779,-3.288 0.558,-1.722 1.246,-1.964 2.744,-3.006 z"
     id="path100"
     style="fill:#0f1d32;fill-opacity:1" />
  <path
     fill="#f9fefd"
     d="m 462.7538,306.71637 c 0.867,-0.034 1.736,-0.049 2.604,-0.046 11.852,0.114 10.443,18.3 7.537,20.741 -1.836,-0.266 -0.936,0.059 -2.553,-1.616 -5.369,-0.268 -6.564,4.751 -14.1,-0.578 -5.305,-12.756 12.333,-7.573 14.539,-11.581 -0.233,-0.678 -1.929,-2.973 -2.383,-3.034 -3.846,-0.521 -7.842,-0.039 -11.785,-0.101 l -0.085,-1.648 c 2.568,-1.509 3.238,-1.566 6.226,-2.137 z"
     id="path101" />
  <path
     fill="#0c0f13"
     d="m 461.4778,318.12137 c 2.916,-0.116 8.367,-1.166 8.793,2.49 -0.815,1.895 -1.205,2.1 -2.74,3.579 -3.191,0.608 -7.937,0.842 -8.543,-3.318 0.654,-1.643 1.048,-1.757 2.49,-2.751 z"
     id="path102"
     style="fill:#0f1d32;fill-opacity:1" />
  <path
     fill="#f9fefd"
     d="m 627.6928,300.16237 c 0.651,-0.046 1.302,-0.072 1.954,-0.077 2.546,-0.008 7.143,0.375 8.991,2.256 -0.027,1.425 0.2,0.801 -0.76,1.913 -3.091,0.826 -11.36,-2.423 -13.361,0.744 -6.139,9.713 15.762,5.288 16.249,13.665 0.43,7.396 -4.89,8.256 -10.518,8.975 -2.908,-0.123 -10.974,-0.801 -11.745,-3.986 l 0.816,-0.872 c 3.784,-0.777 18.216,5.715 17.006,-4.002 -3.531,-4.433 -15.736,-2.23 -17.134,-9.46 -1.141,-5.894 3.659,-7.975 8.502,-9.156 z"
     id="path103" />
  <path
     fill="#f9fefd"
     d="m 202.1368,300.11937 c 5.528,-0.047 14.805,-0.432 19.861,0.32 0.63,0.99 0.411,0.426 0.184,1.934 -2.442,2.071 -12.05,1.27 -15.909,1.224 l -0.029,9.516 13.148,0.025 1.15,0.291 0.335,1.267 -0.652,0.921 c -3.126,0.947 -10.383,0.588 -14.029,0.542 0.039,2.44 0.553,9.096 -0.869,10.867 -1.801,0.015 -1.708,0.315 -2.951,-0.525 -0.717,-4.621 -0.281,-20.675 -0.239,-26.382 z"
     id="path104" />
  <path
     fill="#f9fefd"
     d="m 544.2208,306.47737 c 5.903,-0.007 2.799,0.725 4.324,2.524 4.104,-1.116 9.984,-4.472 14.267,-0.327 2.886,2.793 4.191,15.353 0.958,18.23 -1.668,0.307 -0.964,0.512 -2.24,-0.294 -0.318,-2.843 -0.21,-7.182 -0.218,-10.153 -0.249,-6.51 -5.998,-7.952 -11.031,-5.153 -4.24,2.358 -0.258,13.747 -2.831,15.756 -1.747,0.086 -1.455,0.286 -2.894,-0.41 -0.705,-1.644 -0.344,-17.028 -0.335,-20.173 z"
     id="path105" />
  <path
     fill="#f9fefd"
     d="m 498.7638,306.56437 c 2.789,-0.035 2.755,-0.371 4.159,1.778 1.551,0.575 10.094,-4.778 14.324,0.19 3.031,3.559 4.527,15.379 1.032,18.427 -1.713,0.255 -1.01,0.469 -2.249,-0.368 -0.288,-3.149 -0.158,-7.815 -0.158,-11.097 -0.646,-5.3 -4.938,-6.802 -9.637,-5.327 -5.92,1.857 -2.348,13.122 -4.328,16.786 -1.44,0.185 -1.345,0.211 -2.73,-0.196 -0.991,-1.837 -0.444,-16.736 -0.413,-20.193 z"
     id="path106" />
  <path
     fill="#f9fefd"
     d="m 710.2648,306.56137 c 1.551,0.007 2.113,-0.085 3.594,0.462 1.746,4.311 -1.983,13.84 3.755,17.659 1.526,0.336 1.816,0.405 3.312,-0.043 10.3,-3.084 4.129,-12.782 6.597,-17.871 1.497,-0.268 1.421,-0.346 2.823,0.18 0.901,1.665 0.549,2.685 0.517,4.781 0.048,4.233 0.319,10.908 -0.162,14.927 -1.091,0.768 -1.278,0.482 -2.907,0.497 -0.608,-0.883 -0.525,-0.853 -0.697,-1.897 -18.653,6.655 -17.073,-5.086 -16.832,-18.695 z"
     id="path107" />
  <path
     fill="#f9fefd"
     d="m 268.5378,306.67637 c 2.735,-0.172 7.862,-0.128 9.751,1.96 l -0.496,1.198 c -2.901,1.989 -10.134,-2.462 -12.811,2.5 2.448,3.55 13.256,2.999 14.417,8.308 1.1,5.03 -4.78,6.26 -8.424,6.965 -2.369,-0.179 -8.723,-0.479 -9.533,-2.98 2.697,-3.769 11.654,3.214 14.59,-2.77 -2.009,-3.747 -12.891,-2.72 -14.402,-7.783 -1.39,-4.655 3.544,-6.575 6.908,-7.398 z"
     id="path108" />
  <path
     fill="#f9fefd"
     d="m 409.2558,300.53737 c 4.5,-0.171 22.574,-1.215 24.88,1.661 l -0.394,1.042 c -2.99,0.559 -6.411,0.397 -9.495,0.395 l -0.024,13.197 c 0.066,2.62 0.565,8.013 -0.769,9.994 -2.119,0.122 -1.905,0.475 -3.147,-0.512 -0.564,-5.955 -0.207,-16.353 -0.161,-22.653 -3.078,-0.089 -7.288,0.751 -9.86,-0.521 -0.652,-0.322 -0.784,-1.686 -1.03,-2.603 z"
     id="path109" />
  <path
     fill="#f9fefd"
     d="m 287.8098,302.37137 c 1.276,-0.022 1.783,0.052 3.058,0.217 1.171,1.305 0.797,1.316 1.027,3.497 2.131,1.303 2.488,-0.16 5.71,0.765 0.488,1.411 0.438,0.68 -0.078,2.265 -1.437,0.949 -3.902,0.597 -5.75,0.552 0.001,3.407 -0.654,12.207 1.214,14.334 1.99,0.085 4.867,-0.404 6.392,0.354 l 0.223,1.723 c -1.279,1.017 -4.116,1.459 -5.803,1.53 -8.903,0.374 -4.695,-14.101 -6.571,-17.582 l -2.927,-0.383 c -0.312,-1.258 -0.281,-0.6 0.345,-2.017 3.409,-2.016 2.974,-1.491 3.16,-5.255 z"
     id="path110" />
  <path
     fill="#f9fefd"
     d="m 783.4248,302.72837 c 1.398,-0.068 1.857,-0.058 3.25,0.07 1.263,1.319 0.861,1.023 1.135,3.28 1.551,1.234 3.028,0.26 6.03,0.948 0.7,1.218 0.51,0.546 0.205,2.145 -1.747,1.196 -3.976,0.702 -6.318,0.602 -0.003,4.296 -1.709,11.723 2.025,14.312 1.989,0.549 2.593,0.236 4.697,-0.216 0.618,0.233 0.424,0.318 0.901,1.226 -0.26,1.627 0.108,0.954 -1.22,2.042 -15.611,2.75 -7.967,-11.093 -10.787,-17.242 l -2.153,-0.249 c -0.622,-1.219 -0.428,-0.551 -0.123,-2.176 2.726,-2.129 2.231,-1.468 2.358,-4.742 z"
     id="path111" />
  <path
     fill="#2b347a"
     d="m 650.7378,190.84437 c 2.153,-0.95 4.652,-0.653 6.522,0.775 1.87,1.429 2.814,3.762 2.463,6.089 -0.351,2.327 -1.94,4.278 -4.148,5.092 -3.27,1.205 -6.905,-0.404 -8.212,-3.634 -1.307,-3.231 0.188,-6.915 3.375,-8.322 z"
     id="path112" />
  <path
     fill="#f9fefd"
     d="m 743.1118,298.18137 1.766,0.651 c 0.087,0.211 0.522,1.212 0.548,1.738 0.417,8.46 0.239,17.498 -0.198,25.968 -0.302,0.427 -0.604,0.854 -0.906,1.281 -3.216,-1.008 -2.885,-1.731 -2.833,-5.212 0.114,-7.67 -0.461,-15.603 0.437,-23.202 0.395,-0.408 0.791,-0.816 1.186,-1.224 z"
     id="path113" />
  <path
     fill="#f9fefd"
     d="m 834.6018,306.56737 0.52,0.619 c 0.007,1.438 -0.187,0.948 0.456,2.089 2.256,-1.327 4.825,-3.238 7.314,-2.713 l 0.426,1.014 c -0.267,2.089 0.199,1.321 -1.053,2.584 -4.935,0.801 -6.785,1.887 -6.935,7.236 l -0.01,0.561 c 0.063,2.86 0.957,7.429 -1.277,9.111 -1.865,0.167 -1.09,0.415 -2.476,-0.475 -0.564,-4.015 -0.383,-14.819 -0.135,-18.988 0.934,-0.822 1.749,-0.737 3.17,-1.038 z"
     id="path114" />
  <path
     fill="#f9fefd"
     d="m 244.3138,306.77137 c 1.689,-0.052 2.029,-0.141 3.703,0.237 0.217,1.22 0.187,1.209 0.595,2.38 2.658,-1.697 4.711,-3.956 7.556,-2.194 1.423,5.186 -4.493,0.446 -7.655,7.883 l -0.222,0.533 c 0.045,2.851 0.415,8.915 -0.587,11.316 -1.279,0.378 -1.419,0.231 -2.775,0.038 -1.277,-1.797 -0.663,-16.904 -0.615,-20.193 z"
     id="path115" />
  <path
     fill="#f9fefd"
     d="m 438.7628,306.39837 2.17,0.264 c 1.307,0.987 0.725,0.419 1.255,2.549 1.616,0.963 3.097,-2.675 7.131,-2.537 1.523,0.789 1.064,0.192 1.703,1.569 l -0.307,0.672 c -3.685,3.012 -5.091,-0.572 -8.413,6.204 -0.073,3.642 0.783,8.035 -0.59,11.094 -1.429,0.95 -0.656,0.741 -2.409,0.593 -1.322,-2.539 -0.622,-16.618 -0.54,-20.408 z"
     id="path116" />
  <path
     fill="#f9fefd"
     d="m 229.7358,306.53937 c 1.95,0.035 2.553,-0.302 3.91,0.594 0.539,4.692 0.213,14.979 0.175,20.107 -1.544,0.021 -2.942,0.198 -3.907,-0.713 -0.54,-4.618 -0.216,-14.926 -0.178,-19.988 z"
     id="path117" />
  <path
     fill="#f9fefd"
     d="m 484.1088,307.05037 c 1.802,0.059 2.692,-0.231 3.982,0.589 0.5,4.09 0.198,14.869 0.171,19.463 -1.633,0.055 -2.343,0.205 -3.874,-0.41 -0.543,-3.747 -0.288,-15.298 -0.279,-19.642 z"
     id="path118" />
  <path
     fill="#f9fefd"
     d="m 353.9668,307.02837 c 1.631,0.01 2.929,-0.166 4.015,0.738 0.556,4.445 0.168,14.814 0.071,19.659 -1.851,-0.237 -2.535,-0.005 -3.825,-0.964 -0.491,-3.316 -0.224,-15.154 -0.261,-19.433 z"
     id="path119" />
  <path
     fill="#f9fefd"
     d="m 529.8118,307.00737 c 1.836,0.04 2.419,-0.21 3.875,0.611 0.54,4.447 0.253,14.738 0.234,19.636 -1.486,-0.063 -2.786,0.104 -3.9,-0.762 -0.534,-4.266 -0.235,-14.742 -0.209,-19.485 z"
     id="path120" />
  <path
     fill="#f9fefd"
     d="m 649.1018,306.99737 c 1.651,-0.017 1.995,-0.136 3.561,0.426 0.8,2.666 0.407,15.515 0.371,19.034 -1.13,0.995 -1.679,0.778 -2.966,0.542 -1.817,-2.423 -1.027,-16.14 -0.966,-20.002 z"
     id="path121" />
  <path
     fill="#12ad79"
     d="m 26.1511,171.39737 0.6285,-0.034 0.0984,4.623 c -2.7756,0.152 -6.3202,0.894 -6.878,-2.643 1.6878,-2.38 3.4069,-1.907 6.1511,-1.946 z"
     id="path122" />
  <path
     fill="#f9fefd"
     d="m 353.9918,297.89837 c 1.861,0.037 3.517,0.156 4.738,1.721 0.29,1.868 0.281,1.184 -0.816,3.181 -2.206,0.386 -2.763,0.603 -4.417,-1.017 -0.44,-1.858 -0.197,-2.131 0.495,-3.885 z"
     id="path123" />
  <path
     fill="#f9fefd"
     d="m 230.6508,298.21537 c 0.88,-0.367 1.89,-0.229 2.639,0.362 0.748,0.591 1.117,1.542 0.963,2.483 -0.154,0.941 -0.806,1.724 -1.703,2.047 -1.34,0.481 -2.818,-0.194 -3.333,-1.521 -0.515,-1.327 0.121,-2.822 1.434,-3.371 z"
     id="path124" />
  <path
     fill="#f9fefd"
     d="m 485.0688,298.30737 c 0.913,-0.33 1.933,-0.125 2.648,0.532 0.715,0.657 1.006,1.656 0.754,2.594 -0.252,0.938 -1.004,1.657 -1.952,1.868 -1.341,0.297 -2.683,-0.498 -3.066,-1.817 -0.383,-1.319 0.324,-2.709 1.616,-3.177 z"
     id="path125" />
  <path
     fill="#f9fefd"
     d="m 530.8018,298.21137 c 1.323,-0.445 2.759,0.246 3.237,1.558 0.479,1.311 -0.176,2.765 -1.475,3.276 -0.87,0.343 -1.857,0.187 -2.579,-0.408 -0.722,-0.594 -1.064,-1.534 -0.895,-2.453 0.17,-0.92 0.825,-1.675 1.712,-1.973 z"
     id="path126" />
  <path
     fill="#f9fefd"
     d="m 650.3518,298.15437 c 1.262,-0.392 2.611,0.267 3.079,1.503 0.468,1.236 -0.106,2.623 -1.311,3.165 -0.848,0.382 -1.838,0.262 -2.57,-0.311 -0.732,-0.574 -1.086,-1.507 -0.917,-2.421 0.168,-0.915 0.83,-1.661 1.719,-1.936 z"
     id="path127" />
</svg>
