<?xml version="1.0" encoding="UTF-8" standalone="no"?>
<svg
   width="520"
   height="140"
   viewBox="0 0 520 140"
   version="1.1"
   id="svg160"
   sodipodi:docname="aed-trainer-src.svg"
   inkscape:version="1.4.3 (1:1.4.3+202512261034+0d15f75042)"
   xml:space="preserve"
   xmlns:inkscape="http://www.inkscape.org/namespaces/inkscape"
   xmlns:sodipodi="http://sodipodi.sourceforge.net/DTD/sodipodi-0.dtd"
   xmlns="http://www.w3.org/2000/svg"
   xmlns:svg="http://www.w3.org/2000/svg"><defs
     id="defs160"><rect
       x="318.19315"
       y="85.18557"
       width="593.79352"
       height="140.30565"
       id="rect160" /><rect
       x="318.19315"
       y="85.18557"
       width="508.60794"
       height="38.834602"
       id="rect160-7" /><rect
       x="318.19315"
       y="85.18557"
       width="593.79352"
       height="140.30565"
       id="rect160-5" /><rect
       x="318.19315"
       y="85.18557"
       width="508.60794"
       height="38.834602"
       id="rect160-7-6" /><rect
       x="318.19315"
       y="85.18557"
       width="593.79352"
       height="140.30565"
       id="rect160-6" /><rect
       x="318.19315"
       y="85.18557"
       width="508.60794"
       height="38.834602"
       id="rect160-7-1" /><rect
       x="318.19315"
       y="85.18557"
       width="593.79352"
       height="140.30565"
       id="rect160-6-9" /><rect
       x="318.19315"
       y="85.18557"
       width="508.60794"
       height="38.834602"
       id="rect160-7-1-2" /></defs><sodipodi:namedview
     id="namedview160"
     pagecolor="#ffffff"
     bordercolor="#000000"
     borderopacity="0.25"
     inkscape:showpageshadow="2"
     inkscape:pageopacity="0.0"
     inkscape:pagecheckerboard="0"
     inkscape:deskcolor="#d1d1d1"
     showguides="true"
     inkscape:zoom="1.5965145"
     inkscape:cx="120.57516"
     inkscape:cy="130.28381"
     inkscape:window-width="2560"
     inkscape:window-height="1403"
     inkscape:window-x="1920"
     inkscape:window-y="0"
     inkscape:window-maximized="1"
     inkscape:current-layer="svg160" /><path
     fill="#24b37a"
     d="m -577.28262,-256.06004 c 11.45226,-10.40263 22.1054,-13.82333 37.78243,-10.84973 11.07967,2.10139 19.8642,9.42041 25.88166,18.76915 7.30057,11.34154 7.6398,22.83495 4.74143,35.69168 l -9.58719,0.0192 c 2.94521,-12.63885 3.45335,-22.44391 -4.69318,-33.44481 -7.04721,-9.51693 -14.8616,-11.67793 -25.97036,-13.27544 -5.32622,17.09996 -11.3607,35.93227 -17.17377,52.79519 l -29.94746,18.58747 c 15.21598,-23.42915 26.4344,-46.74677 40.82629,-70.80001 -7.30767,2.71244 -8.9946,3.60026 -14.77715,8.74479 -2.6514,-2.74365 -3.95297,-4.06084 -7.0827,-6.23745"
     id="path54"
     sodipodi:nodetypes="cccccccccccc"
     style="stroke-width:0.709689" /><path
     fill="#ee782e"
     d="m -566.3016,-206.35484 28.65441,-0.0148 -57.40037,88.43004 21.9443,-69.82774 h -23.1458"
     id="path55"
     sodipodi:nodetypes="ccccc"
     style="stroke-width:0.709689" /><path
     fill="#283773"
     d="m -616.65617,-267.32281 c 19.36032,-2.68404 31.24832,10.19397 44.9141,21.55539 -3.98633,7.98613 -8.29272,5.74209 -14.07385,0.78562 -12.69776,-10.88876 -25.41752,-18.95934 -41.92985,-8.39349 a 31.297291,31.297291 0 0 0 -8.70434,8.78169 c -5.15234,7.81865 -6.08771,16.76783 -4.25742,25.77733 -1.27035,1.30654 -3.75071,4.20491 -5.48803,4.49162 -3.16947,0.34846 -4.16091,-3.65844 -4.44549,-5.91242 -1.44422,-11.43238 0.78207,-22.70721 7.89316,-31.97859 a 39.763882,39.763882 0 0 1 26.09172,-15.10715"
     id="path58"
     style="stroke-width:0.709689" /><path
     fill="#24b37a"
     d="m -621.14708,-238.40298 c 1.17595,-0.005 1.83525,-0.15187 2.76424,0.53724 0.9084,1.92964 3.05095,9.33809 3.71309,11.77303 1.87216,6.87831 5.19421,15.70045 6.19204,22.56598 l 1.80545,-2.70249 c 4.87343,0.007 9.91293,-0.15046 14.83108,-0.17104 -0.79911,1.63087 -1.77067,3.33909 -2.64217,4.94654 q -4.20917,0.0298 -8.41763,0.10503 c -2.12622,1.57125 -5.62996,5.91455 -7.40631,6.14875 -2.23694,-2.41649 -7.65968,-22.67883 -9.08544,-27.33723 -2.90405,12.5544 -6.00113,33.71591 -9.93139,46.71813 -0.23491,0.7764 -1.76429,1.02337 -2.63792,1.2746 -3.86212,-3.6258 -6.50288,-24.32034 -9.37073,-28.42234 -0.51594,1.2455 -0.11994,0.80124 -1.04466,1.53577 -3.30503,0.0894 -20.93086,0.59117 -22.93715,-0.32504 -0.91337,-0.41659 -1.0986,-0.84382 -1.49674,-1.7288 0.20581,-1.44493 -0.0781,-0.82608 0.8857,-1.92397 2.60314,-1.17738 15.35766,-0.5862 19.0154,-0.55924 2.16101,-1.5237 5.71087,-4.93163 7.79026,-6.81585 2.85011,7.57735 4.98415,15.50245 7.76613,23.16851 0.52162,-4.82021 8.93782,-46.74296 10.20675,-48.78758"
     id="path64"
     style="stroke-width:0.709689" /><path
     fill="#283773"
     d="m -511.14314,-208.00486 c 0.62524,-0.004 0.27891,-0.0476 1.02621,0.21432 1.19441,8.2913 -17.83165,23.69794 -23.73768,29.27681 l -39.03574,36.57383 -0.64511,0.41871 -0.18097,-0.25265 c 5.74422,-9.78519 12.85105,-20.36807 19.44052,-29.68842 2.05738,-2.91044 7.51773,-7.53974 10.34868,-10.22946 a 1502.4119,1502.4119 0 0 0 13.52739,-13.12073 c 4.70169,-4.55905 7.97477,-6.8996 10.50198,-13.14132 z"
     id="path67"
     style="stroke-width:0.709689" /><path
     fill="#ee782e"
     d="m -612.44204,-180.55338 c 3.04759,0.19489 5.17954,2.59796 7.46716,4.31999 6.77432,5.46141 13.4694,11.03688 19.76787,17.04662 -0.97085,2.94828 -1.94171,5.89657 -2.91256,8.84486 -5.2399,-4.53188 -10.76253,-8.72619 -15.96774,-13.2989 -3.6898,-2.95142 -7.85602,-5.53243 -10.57299,-9.49143 -1.13323,-1.60391 -1.57953,-3.97271 -0.15549,-5.55325 0.64196,-0.78795 1.49138,-1.37891 2.37375,-1.86789 z"
     id="path75"
     style="stroke-width:0.709689" /><text
     xml:space="preserve"
     id="text160"
     style="font-size:85.3333px;line-height:1.3;font-family:'DejaVu Sans';-inkscape-font-specification:'DejaVu Sans';text-align:center;letter-spacing:1.51px;word-spacing:0px;writing-mode:lr-tb;direction:ltr;white-space:pre;shape-inside:url(#rect160);display:inline;fill:#283773;fill-opacity:1;stroke:#000000;stroke-width:0;paint-order:stroke markers fill"
     transform="matrix(0.70968913,0,0,0.70968913,-749.52103,-321.1513)"><tspan
       x="358.81078"
       y="162.81885"
       id="tspan5">AED Trainer</tspan></text><text
     xml:space="preserve"
     id="text160-3"
     style="font-size:29.3333px;line-height:1.3;font-family:'DejaVu Sans';-inkscape-font-specification:'DejaVu Sans';text-align:center;letter-spacing:1.51px;word-spacing:0px;writing-mode:lr-tb;direction:ltr;white-space:pre;shape-inside:url(#rect160-7);display:inline;fill:#24b37a;fill-opacity:1;stroke:#000000;stroke-width:0;paint-order:stroke markers fill"
     transform="matrix(0.70968913,0,0,0.70968913,-726.52229,-256.2426)"><tspan
       x="324.37796"
       y="111.87197"
       id="tspan7"><tspan
         style="font-weight:bold;-inkscape-font-specification:'DejaVu Sans Bold'"
         id="tspan6">First Aid Training Simulator</tspan></tspan></text><g
     id="g160"
     transform="matrix(0.70968913,0,0,0.70968913,-104.88131,-203.83572)"><path
       fill="#24b37a"
       d="m -649.848,339.73914 c 16.137,-14.658 31.148,-19.478 53.238,-15.288 15.612,2.961 27.99,13.274 36.469,26.447 10.287,15.981 10.765,32.176 6.681,50.292 l -13.509,0.027 c 4.15,-17.809 4.866,-31.625 -6.613,-47.126 -9.93,-13.41 -20.941,-16.455 -36.594,-18.706 -7.505,24.095 -16.008,50.631 -24.199,74.392 l -42.198,26.191 c 21.44035,-33.01326 37.24786,-65.86936 57.527,-99.762 -10.297,3.822 -12.674,5.073 -20.822,12.322 -3.736,-3.866 -5.57,-5.722 -9.98,-8.789"
       id="path54-7"
       sodipodi:nodetypes="cccccccccccc" /><path
       fill="#ee782e"
       d="m -634.375,409.77714 40.376,-0.0209 -80.881,124.60391 30.921,-98.39201 h -32.614"
       id="path55-9"
       sodipodi:nodetypes="ccccc" /><path
       fill="#283773"
       d="m -705.328,323.86914 c 27.28,-3.782 44.031,14.364 63.287,30.373 -5.617,11.253 -11.685,8.091 -19.831,1.107 -17.892,-15.343 -35.815,-26.715 -59.082,-11.827 a 44.1,44.1 0 0 0 -12.265,12.374 c -7.26,11.017 -8.578,23.627 -5.999,36.322 -1.79,1.841 -5.285,5.925 -7.733,6.329 -4.466,0.491 -5.863,-5.155 -6.264,-8.331 -2.035,-16.109 1.102,-31.996 11.122,-45.06 a 56.03,56.03 0 0 1 36.765,-21.287"
       id="path58-2"
       style="fill:#f9f9f9" /><path
       fill="#24b37a"
       d="m -711.656,364.61914 c 1.657,-0.007 2.586,-0.214 3.895,0.757 1.28,2.719 4.299,13.158 5.232,16.589 2.638,9.692 7.319,22.123 8.725,31.797 l 2.544,-3.808 c 6.867,0.01 13.968,-0.212 20.898,-0.241 -1.126,2.298 -2.495,4.705 -3.723,6.97 q -5.931,0.042 -11.861,0.148 c -2.996,2.214 -7.933,8.334 -10.436,8.664 -3.152,-3.405 -10.793,-31.956 -12.802,-38.52 -4.092,17.69 -8.456,47.508 -13.994,65.829 -0.331,1.094 -2.486,1.442 -3.717,1.796 -5.442,-5.109 -9.163,-34.269 -13.204,-40.049 -0.727,1.755 -0.169,1.129 -1.472,2.164 -4.657,0.126 -29.493,0.833 -32.32,-0.458 -1.287,-0.587 -1.548,-1.189 -2.109,-2.436 0.29,-2.036 -0.11,-1.164 1.248,-2.711 3.668,-1.659 21.64,-0.826 26.794,-0.788 3.045,-2.147 8.047,-6.949 10.977,-9.604 4.016,10.677 7.023,21.844 10.943,32.646 0.735,-6.792 12.594,-65.864 14.382,-68.745"
       id="path64-0" /><path
       fill="#283773"
       d="m -556.653,407.45214 c 0.881,-0.005 0.393,-0.067 1.446,0.302 1.683,11.683 -25.126,33.392 -33.448,41.253 l -55.004,51.535 -0.909,0.59 -0.255,-0.356 c 8.094,-13.788 18.108,-28.7 27.393,-41.833 2.899,-4.101 10.593,-10.624 14.582,-14.414 a 2117,2117 0 0 0 19.061,-18.488 c 6.625,-6.424 11.237,-9.722 14.798,-18.517 z"
       id="path67-2"
       style="fill:#f9f9f9" /><path
       fill="#ee782e"
       d="m -699.39,446.13314 c 4.29425,0.27461 7.29831,3.6607 10.52173,6.08716 9.54548,7.69549 18.97929,15.55171 27.85427,24.01984 -1.368,4.15433 -2.736,8.30867 -4.104,12.463 -7.38338,-6.38572 -15.16514,-12.29579 -22.49962,-18.73904 -5.19919,-4.15875 -11.06967,-7.79557 -14.89807,-13.37407 -1.59679,-2.26002 -2.22566,-5.59782 -0.21909,-7.82491 0.90456,-1.11027 2.10146,-1.94297 3.34478,-2.63198 z"
       id="path75-3" /><text
       xml:space="preserve"
       id="text160-7"
       style="font-size:85.3333px;line-height:1.3;font-family:'DejaVu Sans';-inkscape-font-specification:'DejaVu Sans';text-align:center;letter-spacing:1.51px;word-spacing:0px;writing-mode:lr-tb;direction:ltr;white-space:pre;shape-inside:url(#rect160-6);display:inline;fill:#f9f9f9;fill-opacity:1;stroke:#000000;stroke-width:0;paint-order:stroke markers fill"
       transform="translate(-892.54358,248.02116)"><tspan
         x="358.81078"
         y="162.81885"
         id="tspan8">AED Trainer</tspan></text><text
       xml:space="preserve"
       id="text160-3-5"
       style="font-size:29.3333px;line-height:1.3;font-family:'DejaVu Sans';-inkscape-font-specification:'DejaVu Sans';text-align:center;letter-spacing:1.51px;word-spacing:0px;writing-mode:lr-tb;direction:ltr;white-space:pre;shape-inside:url(#rect160-7-1);display:inline;fill:#24b37a;fill-opacity:1;stroke:#000000;stroke-width:0;paint-order:stroke markers fill"
       transform="translate(-860.1368,339.48192)"><tspan
         x="324.37796"
         y="111.87197"
         id="tspan10"><tspan
           style="font-weight:bold;-inkscape-font-specification:'DejaVu Sans Bold'"
           id="tspan9">First Aid Training Simulator</tspan></tspan></text></g><rect
     style="fill:#0f1d32;fill-opacity:1;stroke:#000000;stroke-width:0;paint-order:stroke markers fill"
     id="rect161"
     width="520"
     height="140"
     x="0"
     y="0"
     inkscape:export-filename="../work/moj/traed/images/logo.png"
     inkscape:export-xdpi="96"
     inkscape:export-ydpi="96" /><g
     id="g161"
     transform="matrix(0.66666667,0,0,0.66666667,3.2333334e-6,3.3333335)"><path
       fill="#24b37a"
       d="m 119.5287,36.879585 c 11.45225,-10.402624 22.1054,-13.823325 37.78243,-10.849728 11.07966,2.10139 19.8642,9.420414 25.88165,18.769149 7.30057,11.341542 7.6398,22.834957 4.74143,35.691685 l -9.58719,0.01916 c 2.94521,-12.638854 3.45335,-22.443919 -4.69317,-33.44481 -7.04721,-9.516931 -14.8616,-11.677935 -25.97036,-13.275445 -5.32622,17.09996 -11.36071,35.932271 -17.17377,52.795194 l -29.94746,18.58747 c 15.21598,-23.429154 26.4344,-46.746771 40.82628,-70.800009 -7.30767,2.712432 -8.9946,3.600253 -14.77714,8.744789 -2.6514,-2.743658 -3.95297,-4.060841 -7.0827,-6.237457"
       id="path54-7-9"
       sodipodi:nodetypes="cccccccccccc"
       style="stroke-width:0.709689" /><path
       fill="#ee782e"
       d="M 130.50972,86.584792 159.16413,86.569959 101.76376,175 l 21.9443,-69.82774 h -23.1458"
       id="path55-9-7"
       sodipodi:nodetypes="ccccc"
       style="stroke-width:0.709689" /><path
       fill="#283773"
       d="m 80.155145,25.616818 c 19.36032,-2.684044 31.248325,10.193975 44.914095,21.555388 -3.98632,7.986132 -8.29272,5.742095 -14.07384,0.785626 C 98.297638,37.069072 85.57788,28.998487 69.065543,39.564339 a 31.297291,31.297291 0 0 0 -8.704337,8.781693 c -5.152343,7.818645 -6.087714,16.767825 -4.257425,25.777329 -1.270344,1.306537 -3.750707,4.204908 -5.488026,4.491622 -3.169472,0.348457 -4.160908,-3.658447 -4.445493,-5.91242 C 44.726045,61.270181 46.952339,49.99535 54.063424,40.723971 A 39.763882,39.763882 0 0 1 80.155145,25.616818"
       id="path58-2-3"
       style="fill:#f9f9f9;stroke-width:0.709689" /><path
       fill="#24b37a"
       d="m 75.664233,54.53665 c 1.175954,-0.005 1.835256,-0.151873 2.764239,0.537235 0.908402,1.929645 3.050953,9.338089 3.713093,11.773033 1.87216,6.878307 5.194215,15.700453 6.192038,22.565985 l 1.805449,-2.702496 c 4.873435,0.0071 9.912938,-0.150454 14.831088,-0.171035 -0.79911,1.630865 -1.77068,3.339087 -2.64218,4.946533 q -4.209163,0.02981 -8.41762,0.105034 c -2.126229,1.571252 -5.629964,5.914549 -7.406316,6.148747 -2.23694,-2.416492 -7.659675,-22.678826 -9.08544,-27.337226 -2.904048,12.554401 -6.001131,33.71591 -9.93139,46.71813 -0.234907,0.7764 -1.764287,1.02337 -2.637914,1.2746 -3.862128,-3.6258 -6.502882,-24.320339 -9.370735,-28.422342 -0.515944,1.245504 -0.119938,0.801239 -1.044663,1.535767 -3.305022,0.08942 -20.930861,0.591171 -22.937153,-0.325037 -0.913369,-0.416588 -1.098598,-0.843821 -1.496734,-1.728803 0.20581,-1.444927 -0.07807,-0.826078 0.885692,-1.923967 2.60314,-1.177375 15.357673,-0.586204 19.015411,-0.559235 2.161003,-1.523703 5.710868,-4.93163 7.790257,-6.815855 2.850112,7.577351 4.984147,15.50245 7.766128,23.168512 0.521622,-4.820209 8.937825,-46.742965 10.20675,-48.78758"
       id="path64-0-6"
       style="stroke-width:0.709689" /><path
       fill="#283773"
       d="m 185.66818,84.934765 c 0.62523,-0.0035 0.2789,-0.04755 1.02621,0.214326 1.1944,8.291298 -17.83165,23.697939 -23.73768,29.276809 l -39.03575,36.57383 -0.6451,0.41871 -0.18097,-0.25265 c 5.74422,-9.78519 12.85105,-20.36807 19.44051,-29.68842 2.05739,-2.91044 7.51774,-7.53974 10.34869,-10.22946 a 1502.4119,1502.4119 0 0 0 13.52738,-13.120734 c 4.70169,-4.559043 7.97478,-6.899598 10.50198,-13.141314 z"
       id="path67-2-1"
       style="fill:#f9f9f9;stroke-width:0.709689" /><path
       fill="#ee782e"
       d="m 84.369279,112.38625 c 3.047583,0.19489 5.179532,2.59796 7.467158,4.31999 6.774323,5.46141 13.469393,11.03688 19.767873,17.04662 -0.97086,2.94828 -1.94171,5.89657 -2.91256,8.84486 -5.23991,-4.53188 -10.76254,-8.72619 -15.967741,-13.2989 -3.689808,-2.95142 -7.856024,-5.53243 -10.572998,-9.49143 -1.133224,-1.60391 -1.579527,-3.97271 -0.155486,-5.55325 0.641957,-0.78795 1.491384,-1.37891 2.373754,-1.86789 z"
       id="path75-3-2"
       style="stroke-width:0.709689" /></g><path
     d="m 156.63365,35.075039 -8.10228,21.970783 h 16.23413 z m -3.37102,-5.884501 h 6.77161 l 16.82554,44.148561 h -6.20977 l -4.02158,-11.325453 h -19.90085 l -4.02157,11.325453 h -6.29849 z m 31.11512,0 h 27.91443 V 34.2175 h -21.94121 v 13.070103 h 21.02453 v 5.026963 h -21.02453 v 15.997571 h 22.47348 v 5.026962 h -28.4467 z m 45.30891,4.908678 v 34.331197 h 7.21517 q 9.13724,0 13.3658,-4.13985 4.25814,-4.139851 4.25814,-13.070104 0,-8.871107 -4.25814,-12.981392 -4.22856,-4.139851 -13.3658,-4.139851 z m -5.97322,-4.908678 h 12.27171 q 12.83354,0 18.83632,5.352234 6.00278,5.322668 6.00278,16.677687 0,11.414165 -6.03235,16.766399 -6.03236,5.352241 -18.80675,5.352241 h -12.27171 z m 61.90498,0 H 322.9658 V 34.2175 h -15.6723 v 39.121599 h -6.00279 V 34.2175 h -15.67229 z m 54.23916,16.115847 q -0.91669,-0.532266 -2.01079,-0.768827 -1.06453,-0.266133 -2.36563,-0.266133 -4.61298,0 -7.09689,3.016178 -2.45434,2.986606 -2.45434,8.604974 v 17.446522 h -5.47052 V 40.220285 h 5.47052 v 5.145246 q 1.71508,-3.016179 4.46513,-4.46513 2.75004,-1.478517 6.6829,-1.478517 0.56184,0 1.24195,0.08871 0.68013,0.05912 1.50809,0.206995 z m 21.83003,11.384592 q -6.59419,0 -9.13724,1.50809 -2.54306,1.508089 -2.54306,5.145246 0,2.897895 1.8925,4.612979 1.92208,1.685505 5.20439,1.685505 4.52427,0 7.24474,-3.193594 2.75005,-3.223174 2.75005,-8.545843 v -1.212383 z m 10.85232,-2.247344 v 18.895466 h -5.44094 v -5.026962 q -1.86294,3.016171 -4.64256,4.465122 -2.77961,1.419379 -6.80118,1.419379 -5.0861,0 -8.10228,-2.838757 -2.98661,-2.868322 -2.98661,-7.658724 0,-5.588802 3.72587,-8.427558 3.75543,-2.838757 11.1776,-2.838757 h 7.62916 v -0.532259 q 0,-3.755441 -2.48392,-5.795797 -2.45434,-2.069922 -6.91947,-2.069922 -2.83875,0 -5.52965,0.680116 -2.6909,0.680117 -5.17481,2.040356 v -5.026962 q 2.9866,-1.153245 5.79579,-1.715084 2.80918,-0.591406 5.47051,-0.591406 7.18561,0 10.73404,3.725868 3.54845,3.725861 3.54845,11.295881 z m 12.27879,-14.223348 h 5.44096 v 33.118814 h -5.44096 z m 0,-12.892682 h 5.44096 V 34.2175 h -5.44096 z m 45.42719,26.021924 v 19.989572 h -5.44095 v -19.81215 q 0,-4.701691 -1.83336,-7.037746 -1.83336,-2.336062 -5.50009,-2.336062 -4.40599,0 -6.94904,2.809183 -2.54305,2.809191 -2.54305,7.658731 V 73.339099 H 402.5089 V 40.220285 h 5.47052 v 5.145246 q 1.95165,-2.986613 4.58341,-4.46513 2.66133,-1.478517 6.12107,-1.478517 5.70708,0 8.63454,3.548446 2.92747,3.518873 2.92747,10.379197 z m 40.25235,2.069929 v 2.661327 h -25.01653 q 0.35484,5.618374 3.37102,8.575408 3.04575,2.927467 8.45713,2.927467 3.13446,0 6.06192,-0.768827 2.95704,-0.768828 5.85494,-2.30649 v 5.145246 q -2.92747,1.241956 -6.00279,1.8925 -3.07532,0.650551 -6.23934,0.650551 -7.92486,0 -12.56741,-4.61298 -4.61298,-4.612979 -4.61298,-12.478691 0,-8.131852 4.37642,-12.892681 4.40598,-4.790402 11.85772,-4.790402 6.6829,0 10.55661,4.317274 3.90329,4.2877 3.90329,11.680298 z m -5.44095,-1.596801 q -0.0591,-4.46513 -2.51348,-7.126464 -2.42477,-2.661327 -6.44634,-2.661327 -4.55383,0 -7.30388,2.572616 -2.72047,2.572623 -3.13446,7.244741 z m 34.634,-8.51627 q -0.91667,-0.532266 -2.01078,-0.768827 -1.06453,-0.266133 -2.36563,-0.266133 -4.61298,0 -7.09689,3.016178 -2.45434,2.986606 -2.45434,8.604974 v 17.446522 h -5.47052 V 40.220285 h 5.47052 v 5.145246 q 1.71508,-3.016179 4.46512,-4.46513 2.75005,-1.478517 6.68291,-1.478517 0.56183,0 1.24196,0.08871 0.68011,0.05912 1.50809,0.206995 z"
     id="text160-7-9"
     style="font-size:85.3333px;line-height:1.3;font-family:'DejaVu Sans';-inkscape-font-specification:'DejaVu Sans';text-align:center;letter-spacing:1.51px;word-spacing:0px;white-space:pre;fill:#f9f9f9;stroke:#000000;stroke-width:0;paint-order:stroke markers fill"
     aria-label="AED Trainer" /><path
     style="font-weight:bold;font-size:29.3333px;line-height:1.3;font-family:'DejaVu Sans';-inkscape-font-specification:'DejaVu Sans Bold';text-align:center;letter-spacing:1.51px;word-spacing:0px;white-space:pre;fill:#24b37a;stroke:#000000;stroke-width:0;paint-order:stroke markers fill"
     d="m 136.40752,86.91531 h 10.56123 v 2.95795 h -6.64778 v 2.82582 h 6.25135 v 2.95796 h -6.25135 v 6.43432 h -3.91345 z m 15.12955,3.79147 h 3.639 v 11.38458 h -3.639 z m 0,-4.43186 h 3.639 v 2.96813 h -3.639 z m 16.66445,7.53212 q -0.47775,-0.22362 -0.95549,-0.32527 -0.46759,-0.11181 -0.94533,-0.11181 -1.40274,0 -2.16511,0.90466 -0.75219,0.89451 -0.75219,2.5717 v 5.24504 h -3.639 V 90.70678 h 3.639 v 1.87032 q 0.70137,-1.11813 1.60604,-1.62637 0.91483,-0.5184 2.18543,-0.5184 0.18297,0 0.39643,0.0203 0.21346,0.0102 0.62005,0.061 z m 11.77517,-2.74449 v 2.76483 q -1.16895,-0.48792 -2.25659,-0.73187 -1.08763,-0.24396 -2.05328,-0.24396 -1.03682,0 -1.54505,0.26429 -0.49809,0.25412 -0.49809,0.79285 0,0.43709 0.3761,0.67088 0.38627,0.23379 1.37225,0.3456 l 0.64039,0.0915 q 2.79532,0.35577 3.76098,1.16895 0.96565,0.81318 0.96565,2.55137 0,1.8195 -1.34175,2.73433 -1.34176,0.91483 -4.00494,0.91483 -1.12829,0 -2.3379,-0.18296 -1.19945,-0.1728 -2.47005,-0.52858 v -2.76482 q 1.08764,0.52857 2.22609,0.79285 1.14863,0.26429 2.32775,0.26429 1.0673,0 1.60603,-0.29478 0.53874,-0.29478 0.53874,-0.87418 0,-0.48791 -0.3761,-0.7217 -0.36593,-0.24395 -1.4739,-0.3761 l -0.64038,-0.0813 q -2.42939,-0.30495 -3.40521,-1.12829 -0.97582,-0.82336 -0.97582,-2.50055 0,-1.80933 1.2401,-2.68351 1.24011,-0.87417 3.80164,-0.87417 1.00632,0 2.11428,0.15247 1.10797,0.15247 2.40906,0.47775 z m 8.54277,-3.58818 v 3.23241 h 3.75081 v 2.60219 h -3.75081 v 4.82829 q 0,0.79285 0.3151,1.07746 0.31511,0.27445 1.25028,0.27445 h 1.87032 v 2.60219 h -3.1206 q -2.15494,0 -3.0596,-0.8945 -0.89451,-0.90467 -0.89451,-3.0596 v -4.82829 h -1.80933 v -2.60219 h 1.80933 v -3.23241 z m 24.73962,11.85216 h -6.11921 l -0.96566,2.76483 h -3.93378 l 5.62114,-15.17605 h 4.66565 l 5.62113,15.17605 h -3.93378 z m -5.14339,-2.81565 h 4.15741 l -2.07363,-6.03789 z m 12.95429,-5.8041 h 3.63899 v 11.38458 h -3.63899 z m 0,-4.43186 h 3.63899 v 2.96813 h -3.63899 z m 15.9529,6.09889 v -6.09889 h 3.65933 v 15.81644 h -3.65933 v -1.6467 q -0.75219,1.00632 -1.65686,1.4739 -0.90467,0.46758 -2.09395,0.46758 -2.10412,0 -3.45604,-1.66703 -1.35191,-1.67719 -1.35191,-4.30988 0,-2.63268 1.35191,-4.29971 1.35192,-1.67719 3.45604,-1.67719 1.17912,0 2.08378,0.47774 0.91484,0.46759 1.66703,1.46374 z m -2.39889,7.36948 q 1.16895,0 1.77884,-0.85384 0.62005,-0.85384 0.62005,-2.48022 0,-1.62636 -0.62005,-2.48021 -0.60989,-0.85384 -1.77884,-0.85384 -1.15879,0 -1.77884,0.85384 -0.60989,0.85385 -0.60989,2.48021 0,1.62638 0.60989,2.48022 0.62005,0.85384 1.77884,0.85384 z m 17.29899,-12.82798 h 13.98677 v 2.95795 h -5.03158 v 12.2181 h -3.91345 v -12.2181 h -5.04174 z m 23.0886,6.89173 q -0.47774,-0.22362 -0.95549,-0.32527 -0.46758,-0.11181 -0.94532,-0.11181 -1.40275,0 -2.16511,0.90466 -0.7522,0.89451 -0.7522,2.5717 v 5.24504 h -3.63899 V 90.70678 h 3.63899 v 1.87032 q 0.70138,-1.11813 1.60604,-1.62637 0.91483,-0.5184 2.18544,-0.5184 0.18297,0 0.39643,0.0203 0.21346,0.0102 0.62005,0.061 z m 7.98369,3.16126 q -1.13845,0 -1.71785,0.38626 -0.56923,0.38626 -0.56923,1.13846 0,0.6912 0.45742,1.08764 0.46758,0.38626 1.29093,0.38626 1.02665,0 1.72802,-0.73187 0.70137,-0.74203 0.70137,-1.84999 V 96.9683 Z m 5.56016,-1.37225 v 6.49531 h -3.6695 V 100.404 q -0.73187,1.03682 -1.6467,1.51456 -0.91483,0.46758 -2.22609,0.46758 -1.76868,0 -2.87664,-1.02664 -1.0978,-1.03681 -1.0978,-2.68351 0,-2.00247 1.37224,-2.93763 1.38242,-0.93517 4.33022,-0.93517 h 2.14477 v -0.28461 q 0,-0.86401 -0.68104,-1.26043 -0.68105,-0.4066 -2.12445,-0.4066 -1.16895,0 -2.17527,0.23379 -1.00631,0.23379 -1.87032,0.70137 v -2.77499 q 1.16895,-0.28461 2.34807,-0.42692 1.17912,-0.15247 2.35824,-0.15247 3.07993,0 4.44202,1.21978 1.37225,1.20961 1.37225,3.94394 z m 4.45652,-4.88927 h 3.639 v 11.38458 h -3.639 z m 0,-4.43186 h 3.639 v 2.96813 h -3.639 z m 19.65289,8.88405 v 6.93239 h -3.65933 v -1.12829 -4.17774 q 0,-1.47389 -0.0712,-2.03296 -0.061,-0.55906 -0.22363,-0.82335 -0.21346,-0.35577 -0.57939,-0.5489 -0.36593,-0.20329 -0.83351,-0.20329 -1.13846,0 -1.78901,0.88433 -0.65055,0.87418 -0.65055,2.4294 v 5.6008 h -3.639 V 90.70678 h 3.639 v 1.66703 q 0.82336,-0.99615 1.74835,-1.46374 0.92499,-0.47774 2.04312,-0.47774 1.97198,0 2.98846,1.20961 1.02665,1.20961 1.02665,3.51703 z m 4.44635,-4.45219 h 3.63899 v 11.38458 h -3.63899 z m 0,-4.43186 h 3.63899 v 2.96813 h -3.63899 z m 19.65289,8.88405 v 6.93239 h -3.65932 v -1.12829 -4.17774 q 0,-1.47389 -0.0712,-2.03296 -0.061,-0.55906 -0.22363,-0.82335 -0.21346,-0.35577 -0.57939,-0.5489 -0.36593,-0.20329 -0.83351,-0.20329 -1.13846,0 -1.78901,0.88433 -0.65054,0.87418 -0.65054,2.4294 v 5.6008 h -3.63901 V 90.70678 h 3.63901 v 1.66703 q 0.82334,-0.99615 1.74834,-1.46374 0.925,-0.47774 2.04313,-0.47774 1.97197,0 2.98845,1.20961 1.02664,1.20961 1.02664,3.51703 z m 12.19194,5.00108 q -0.7522,0.99615 -1.65686,1.46373 -0.90467,0.46758 -2.09396,0.46758 -2.08379,0 -3.44586,-1.63653 -1.36209,-1.6467 -1.36209,-4.1879 0,-2.55137 1.36209,-4.17774 1.36207,-1.63653 3.44586,-1.63653 1.18929,0 2.09396,0.46758 0.90466,0.46758 1.65686,1.4739 v -1.68736 h 3.65932 v 10.23596 q 0,2.7445 -1.73817,4.1879 -1.72803,1.45357 -5.02142,1.45357 -1.0673,0 -2.06345,-0.16264 -0.99616,-0.16264 -2.00248,-0.49807 v -2.83599 q 0.9555,0.5489 1.87033,0.81319 0.91484,0.27445 1.83983,0.27445 1.78901,0 2.62252,-0.78269 0.83352,-0.78269 0.83352,-2.44972 z m -2.3989,-7.08487 q -1.12829,0 -1.75851,0.83351 -0.63022,0.83352 -0.63022,2.35824 0,1.56538 0.60989,2.37856 0.60989,0.80302 1.77884,0.80302 1.13846,0 1.76868,-0.83351 0.63022,-0.83352 0.63022,-2.34807 0,-1.52472 -0.63022,-2.35824 -0.63022,-0.83351 -1.76868,-0.83351 z m 29.66955,-5.68213 v 3.21208 q -1.25027,-0.55906 -2.43955,-0.84368 -1.18929,-0.28461 -2.24642,-0.28461 -1.40275,0 -2.07363,0.38626 -0.67088,0.38626 -0.67088,1.19945 0,0.60988 0.44726,0.95549 0.45741,0.33544 1.6467,0.57939 l 1.66703,0.33544 q 2.53103,0.50824 3.59833,1.54505 1.06731,1.03681 1.06731,2.94779 0,2.51071 -1.49423,3.74065 -1.48406,1.21978 -4.54367,1.21978 -1.4434,0 -2.89696,-0.27445 -1.45357,-0.27445 -2.90714,-0.81318 v -3.30356 q 1.45357,0.77252 2.80549,1.16895 1.36208,0.38626 2.62252,0.38626 1.28076,0 1.96181,-0.42692 0.68104,-0.42692 0.68104,-1.21978 0,-0.71153 -0.46758,-1.09779 -0.45742,-0.38627 -1.83984,-0.69121 l -1.51455,-0.33545 q -2.27692,-0.48791 -3.33406,-1.55521 -1.04697,-1.0673 -1.04697,-2.87664 0,-2.26675 1.46373,-3.48653 1.46373,-1.21977 4.20823,-1.21977 1.25027,0 2.57169,0.19313 1.32143,0.18296 2.73434,0.55906 z m 5.34085,3.31373 h 3.63901 v 11.38458 h -3.63901 z m 0,-4.43186 h 3.63901 v 2.96813 h -3.63901 z m 18.75839,6.32251 q 0.69121,-1.05714 1.63654,-1.60604 0.95549,-0.55906 2.09395,-0.55906 1.96181,0 2.98845,1.20961 1.02665,1.20961 1.02665,3.51703 v 6.93239 h -3.65933 v -5.93625 q 0.0102,-0.13214 0.0102,-0.27445 0.0102,-0.1423 0.0102,-0.40658 0,-1.20962 -0.35577,-1.74835 -0.35577,-0.5489 -1.14863,-0.5489 -1.0368,0 -1.60603,0.85384 -0.55906,0.85385 -0.5794,2.47005 v 5.59064 h -3.65932 v -5.93625 q 0,-1.89065 -0.32528,-2.42938 -0.32527,-0.5489 -1.15879,-0.5489 -1.04698,0 -1.6162,0.86401 -0.56923,0.85384 -0.56923,2.44972 v 5.6008 h -3.65933 V 90.70678 h 3.65933 v 1.66703 q 0.67087,-0.96566 1.53489,-1.45357 0.87417,-0.48791 1.92115,-0.48791 1.17911,0 2.08378,0.56923 0.90467,0.56923 1.37225,1.59587 z m 12.09029,5.06208 v -6.95273 h 3.65933 v 1.13846 q 0,0.92499 -0.0102,2.32773 -0.0102,1.39258 -0.0102,1.86017 0,1.37225 0.0711,1.98213 0.0712,0.59973 0.24396,0.87418 0.22362,0.35576 0.57939,0.5489 0.36594,0.19313 0.83351,0.19313 1.13847,0 1.78901,-0.87418 0.65055,-0.87417 0.65055,-2.42938 v -5.62114 h 3.639 v 11.38458 h -3.639 v -1.6467 q -0.82335,0.99616 -1.74835,1.4739 -0.91483,0.46758 -2.0228,0.46758 -1.97197,0 -3.00878,-1.20961 -1.02664,-1.20961 -1.02664,-3.51702 z m 16.0139,-11.38459 h 3.639 v 15.81644 h -3.639 z m 13.31005,10.69338 q -1.13846,0 -1.71785,0.38626 -0.56923,0.38626 -0.56923,1.13846 0,0.6912 0.45742,1.08764 0.46757,0.38626 1.29093,0.38626 1.02664,0 1.72801,-0.73187 0.70137,-0.74203 0.70137,-1.84999 V 96.9683 Z m 5.56015,-1.37225 v 6.49531 h -3.6695 V 100.404 q -0.73186,1.03682 -1.64669,1.51456 -0.91484,0.46758 -2.2261,0.46758 -1.76867,0 -2.87664,-1.02664 -1.0978,-1.03681 -1.0978,-2.68351 0,-2.00247 1.37225,-2.93763 1.38242,-0.93517 4.33021,-0.93517 h 2.14477 v -0.28461 q 0,-0.86401 -0.68104,-1.26043 -0.68104,-0.4066 -2.12444,-0.4066 -1.16896,0 -2.17527,0.23379 -1.00632,0.23379 -1.87033,0.70137 v -2.77499 q 1.16896,-0.28461 2.34807,-0.42692 1.17912,-0.15247 2.35824,-0.15247 3.07994,0 4.44202,1.21978 1.37225,1.20961 1.37225,3.94394 z m 8.43096,-8.12168 v 3.23241 h 3.75081 v 2.60219 h -3.75081 v 4.82829 q 0,0.79285 0.31511,1.07746 0.31511,0.27445 1.25026,0.27445 h 1.87033 v 2.60219 h -3.12059 q -2.15494,0 -3.05961,-0.8945 -0.8945,-0.90467 -0.8945,-3.0596 v -4.82829 h -1.80934 v -2.60219 h 1.80934 v -3.23241 z m 12.46636,5.56015 q -1.20961,0 -1.84999,0.87417 -0.63021,0.86401 -0.63021,2.50054 0,1.63654 0.63021,2.51071 0.64038,0.86401 1.84999,0.86401 1.18929,0 1.8195,-0.86401 0.63022,-0.87417 0.63022,-2.51071 0,-1.63653 -0.63022,-2.50054 -0.63021,-0.87417 -1.8195,-0.87417 z m 0,-2.60219 q 2.93763,0 4.58433,1.58571 1.65686,1.58571 1.65686,4.39119 0,2.80549 -1.65686,4.3912 -1.6467,1.58571 -4.58433,1.58571 -2.94779,0 -4.61481,-1.58571 -1.65687,-1.58571 -1.65687,-4.3912 0,-2.80548 1.65687,-4.39119 1.66702,-1.58571 4.61481,-1.58571 z m 18.4128,3.37471 q -0.47775,-0.22362 -0.95549,-0.32527 -0.46758,-0.11181 -0.94533,-0.11181 -1.40275,0 -2.16511,0.90466 -0.75219,0.89451 -0.75219,2.5717 v 5.24504 h -3.639 V 90.70678 h 3.639 v 1.87032 q 0.70137,-1.11813 1.60604,-1.62637 0.91483,-0.5184 2.18543,-0.5184 0.18297,0 0.39643,0.0203 0.21346,0.0102 0.62005,0.061 z"
     id="text160-3-5-1"
     aria-label="First Aid Training Simulator" /></svg>
