<?xml version="1.0" encoding="UTF-8" standalone="no"?>
<svg
   width="1024"
   height="1024"
   viewBox="0 0 1024 1024"
   version="1.1"
   id="svg127"
   sodipodi:docname="aed-trainer-black.svg"
   inkscape:version="1.4.3 (1:1.4.3+202512261034+0d15f75042)"
   xmlns:inkscape="http://www.inkscape.org/namespaces/inkscape"
   xmlns:sodipodi="http://sodipodi.sourceforge.net/DTD/sodipodi-0.dtd"
   xmlns="http://www.w3.org/2000/svg"
   xmlns:svg="http://www.w3.org/2000/svg">
  <sodipodi:namedview
     id="namedview127"
     pagecolor="#ffffff"
     bordercolor="#000000"
     borderopacity="0.25"
     inkscape:showpageshadow="2"
     inkscape:pageopacity="0.0"
     inkscape:pagecheckerboard="0"
     inkscape:deskcolor="#d1d1d1"
     inkscape:zoom="0.75097656"
     inkscape:cx="512"
     inkscape:cy="512"
     inkscape:window-width="1870"
     inkscape:window-height="1016"
     inkscape:window-x="50"
     inkscape:window-y="27"
     inkscape:window-maximized="1"
     inkscape:current-layer="svg127" />
  <path
     fill="#0C0F13"
     d="M0 0L1024 0L1024 511.974L1024 1024L0 1024L0 512.025L0 0Z"
     id="path1" />
  <path
     fill="#F9FEFD"
     d="M0 0L1024 0L1024 511.974L0 512.025L0 0Z"
     id="path2" />
  <path
     fill="#2B347A"
     d="M435.378 269.596C455.646 269.567 484.382 266.163 499.562 281.9C513.656 296.512 512.882 321.319 498.48 335.664C485.615 346.734 472.732 346.561 456.939 346.551L435.201 346.507L435.378 269.596Z"
     id="path3" />
  <path
     fill="#F9FEFD"
     d="M444.834 277.732C458.948 277.462 480.606 275.975 491.386 286.715C503.024 298.309 502.438 318.446 490.822 329.92C476.452 340.676 462.428 338.478 444.909 338.358L444.834 277.732Z"
     id="path4" />
  <path
     fill="#2B347A"
     d="M244.881 156.358C247.871 159.408 255.504 173.287 257.043 177.738C248.799 193.612 240.748 210.538 232.917 226.65L277.105 226.932C262.245 251.648 248.777 278.51 233.892 303.292C232.648 305.364 232.825 305.521 231.125 305.911L215.958 305.621C221.264 287.982 228.118 268.43 233.831 250.683C220.123 250.364 205.552 250.635 191.78 250.68C194.046 247.393 196.148 244.013 198.102 240.531C212.255 215.304 226.283 190.032 239.541 164.32C240.93 161.627 243.054 158.779 244.881 156.358Z"
     id="path5" />
  <path
     fill="#12AD79"
     d="M298.712 129.206C342.002 124.16 380.824 169.005 376.499 210.557C375.451 220.625 374.056 226.928 371.501 236.722C364.034 235.065 356.536 233.554 349.01 232.191C354.055 217.503 355.374 205.477 351.573 190.411C348.207 180.388 344.632 173.195 336.892 165.725C317.142 146.665 287.283 147.115 267.755 166.189C264.54 169.33 262.135 172.738 259.176 175.814L258.713 176.291C255.195 168.635 251.338 162.55 246.879 155.456C247.457 154.772 248.039 154.091 248.625 153.415C261.404 138.685 279.412 130.575 298.712 129.206Z"
     id="path6" />
  <path
     fill="#2B347A"
     d="M97.6794 241.074L126.994 241.072C141.506 279.452 169.615 307.016 206.457 324.035L200.781 341.877L199.128 346.88C179.082 340.557 155.34 325.224 140.001 311.032C122.158 294.525 101.453 265.123 97.6794 241.074Z"
     id="path7" />
  <path
     fill="#2B347A"
     d="M155.344 128.055C155.811 128.111 155.476 128.048 156.278 128.468L153.947 159.714C123.874 171.161 118.015 204.961 125.307 233.001L96.875 232.925L95.7863 232.697C95.3603 232.147 95.022 231.648 94.8846 230.948C87.9288 195.554 99.2487 155.911 131.948 137.13C140.217 132.38 146.226 130.367 155.344 128.055Z"
     id="path8" />
  <path
     fill="#2B347A"
     d="M304.877 269.958L314.16 269.86C325.984 295.325 338.493 321.033 350.686 346.344L340.484 346.325C337.21 339.985 334.534 333.396 331.063 326.884C325.534 326.728 319.797 326.729 314.25 326.657L287.461 326.503C284.398 332.835 281.683 339.841 278.622 346.371L268.481 346.203C269.594 343.311 271.276 339.955 272.652 337.143C283.551 314.878 293.946 292.184 304.877 269.958Z"
     id="path9" />
  <path
     fill="#F9FEFD"
     d="M309.244 280.425C311.281 282.701 325.501 314.417 327.452 319.031L310.25 319.009L291.029 318.962C297.335 305.934 303.206 293.65 309.244 280.425Z"
     id="path10" />
  <path
     fill="#12AD79"
     d="M163.367 86.6809C164.981 86.742 164.974 86.8298 166.507 87.4312C167.946 89.3546 167.95 94.792 168.157 97.3908C172.371 150.27 175.095 203.821 180.427 256.581C181.639 251.956 182.346 245.724 183.236 240.818C185.813 226.62 188.198 212.323 190.796 198.13C191.138 196.266 191.409 195.445 192.821 194.568C196.623 195.42 195.638 199.635 195.547 202.837C200.827 202.966 207.246 202.141 212.366 203.016C213.233 203.164 213.103 203.44 213.66 204.438C212.964 209.023 197.761 207.52 193.812 207.49C191.361 225.245 187.864 243.164 184.312 260.736C183.504 264.731 182.959 271.746 181.174 275.131C179.505 275.798 180.394 275.626 178.367 275.306C176.575 273.12 174.777 240.431 174.059 234.007C172.204 217.392 171.664 199.849 170.069 183.12C169.728 175.345 168.541 165.681 167.897 157.754L164.99 117.254C162.98 127.236 161.897 145.207 160.888 155.826L153.188 239.374C147.363 239.749 137.869 239.464 131.805 239.425L95.77 239.413C93.3006 239.434 90.6532 239.695 88.8534 237.938C88.6723 236.13 88.5757 237.054 89.6626 235.157C91.4182 234.04 142.744 234.966 149.345 235.007C151.711 188.957 158.321 142.342 161.791 96.3744C162.037 93.1203 162.19 89.7364 163.367 86.6809Z"
     id="path11" />
  <path
     fill="#2B347A"
     d="M843.957 288.625C851.326 287.821 858.555 288.668 864.943 292.688C871.233 296.647 875.658 302.979 877.211 310.247C877.758 312.755 878.433 317.403 877.058 319.587C873.261 321.203 834.586 320.275 828.554 320.23C828.712 320.824 828.875 321.416 829.043 322.007C833.56 337.842 846.9 341.66 861.431 337.112C864.793 335.635 866.52 334.131 869.139 331.754L874.023 337.348C858.419 354.741 824.782 347.885 820.193 323.796C816.816 306.065 826.566 292.077 843.957 288.625Z"
     id="path12" />
  <path
     fill="#F9FEFD"
     d="M846.134 296.147C859.482 295.35 865.86 300.933 868.702 313.54L852.25 313.524L828.633 313.474C831.29 302.947 834.99 297.81 846.134 296.147Z"
     id="path13" />
  <path
     fill="#2B347A"
     d="M669.59 288.661C670.807 288.541 672.028 288.456 673.25 288.406C699.681 287.47 699.896 305.02 699.31 324.991C699.107 331.928 699.337 339.608 699.331 346.59L690.727 346.565C690.7 344.048 690.763 341.376 690.783 338.846C679.424 349.2 658.724 350.946 649.93 336.562C643.728 319.172 657.883 313.696 672.08 313.491C675.788 313.437 687.112 314.201 689.686 312.909C689.928 312.173 690.204 311.394 690.335 310.624C690.823 307.714 690.047 304.734 688.202 302.431C685.438 298.933 681.176 297.196 676.84 296.709C668.875 295.784 660.864 298.01 654.518 302.912C653.152 300.623 651.598 298.225 650.178 295.95C656.758 291.643 661.932 289.833 669.59 288.661Z"
     id="path14" />
  <path
     fill="#F9FEFD"
     d="M669.761 320.157C675.303 319.674 684.69 320.098 690.388 320.23C690.509 331.331 689.231 334.951 678.359 339.186C671.021 340.334 659.48 339.911 657.566 330.744C657.153 328.855 657.551 326.88 658.663 325.299C661.226 321.638 665.695 320.728 669.761 320.157Z"
     id="path15" />
  <path
     fill="#2B347A"
     d="M171.59 125.47C198.537 125.349 218.378 133.007 238.68 151.184C235.329 156.63 232.04 162.114 228.814 167.635C226.779 171.393 225.583 173.852 223.94 177.786C222.725 176.426 221.481 175.092 220.208 173.785C207.944 161.437 191.489 155.606 174.284 155.522C173.158 145.651 172.812 135.584 171.59 125.47Z"
     id="path16" />
  <path
     fill="#2B347A"
     d="M378.618 269.758L414.968 269.61L414.946 277.704C401.882 278.383 384.845 277.974 371.472 278.045L371.472 303.127L410.597 303.183L410.619 311.112L371.477 311.397L371.48 326.75L371.491 338.313L416.989 338.37L416.986 346.532L361.626 346.496C361.573 320.938 361.656 295.38 361.874 269.823L378.618 269.758Z"
     id="path17" />
  <path
     fill="#2B347A"
     d="M778.781 288.17L779.227 288.158C796.267 287.847 805.269 298.493 805.232 314.971C805.209 325.405 805.316 336.025 805.367 346.464L795.922 346.447C796.011 336.411 796.014 326.207 796.122 316.18C796.303 299.271 785.029 293.438 769.423 298.294C761.022 303.128 759.28 308.609 759.203 318.092C759.128 327.49 759.171 336.908 759.18 346.309L749.788 346.258L749.925 288.619L758.432 288.601C758.608 291.915 758.66 295.359 758.754 298.687C764.51 291.862 770.146 289.185 778.781 288.17Z"
     id="path18" />
  <path
     fill="#2B347A"
     d="M544.531 269.571L607.477 269.607L607.475 277.996L580.991 278.011L580.914 320.25L580.849 346.47L571.477 346.448L571.526 277.986L544.51 277.976L544.531 269.571Z"
     id="path19" />
  <path
     fill="#2B347A"
     d="M638.803 288.108C641.011 288.002 640.182 287.668 641.755 288.527C642.688 290.663 642.218 294.133 642.149 296.702C619.589 297.878 621.632 312.328 621.829 329.94C621.889 335.349 621.824 341.001 621.799 346.409C618.942 346.357 615.644 347.113 613.356 346.011C612.141 344.225 612.571 344.387 612.568 341.75L612.556 288.484C615.5 288.398 618.633 288.427 621.596 288.402L621.682 298.216C626.756 291.323 630.602 289.685 638.803 288.108Z"
     id="path20" />
  <path
     fill="#2B347A"
     d="M919.105 288.144C919.985 288.047 920.036 288.13 920.933 288.255C922.08 290.027 921.597 294.797 921.516 297.123L920.617 297.114C901.777 297.098 900.518 311.501 901.021 326.152C901.246 332.709 901.086 339.801 901.13 346.409L891.972 346.399L891.977 339.875L892.014 288.637L901.102 288.652L901.047 298.044C906.95 291.033 910.052 289.686 919.105 288.144Z"
     id="path21" />
  <path
     fill="#2B347A"
     d="M719.988 288.382L729.206 288.322L729.083 346.5L720.056 346.459C720.143 327.1 720.12 307.74 719.988 288.382Z"
     id="path22" />
  <path
     fill="#EB7B3B"
     d="M214.73 309.648L230.751 309.813L201.743 359.749C199.483 363.409 197.16 367.028 194.774 370.607C198.335 358.196 202.913 344.762 206.931 332.451C209.183 325.552 212.038 316.205 214.73 309.648Z"
     id="path23" />
  <path
     fill="#171C36"
     d="M653.228 382.558C655.447 382.409 660.066 383.049 662.69 384.533C662.241 384.279 665.065 382.186 665.761 381.992L667.032 382.752C668.012 385.972 667.381 397.459 667.431 401.285C667.533 409.031 659.838 412.498 653.067 410.736C650.88 410.166 647.261 409.872 645.746 408.012L646.101 406.578C650.281 404.494 656.853 409.759 661.372 406.496C663.066 405.273 663.052 403.078 663.241 401.197C662.444 399.791 661.493 400.635 659.854 401.159C644.351 406.112 637.512 387.98 653.228 382.558Z"
     id="path24" />
  <path
     fill="#F9FEFD"
     d="M653.931 386.084C655.008 386.044 657.405 385.918 658.378 386.224C660.357 386.86 661.993 388.273 662.911 390.138C664.915 394.127 662.199 397.149 658.659 398.682C654.455 398.663 647.708 397.998 648.687 390.813C648.975 388.698 651.986 386.912 653.931 386.084Z"
     id="path25" />
  <path
     fill="#2B347A"
     d="M221.954 330.509C227.533 334.186 244.888 332.633 252.014 332.327C248.27 336.07 240.118 342.533 235.865 346.101C233.888 347.765 231.95 349.562 230.029 351.296C223.717 351.164 217.18 350.304 210.92 349.446C214.085 343.569 218.305 336.006 221.954 330.509Z"
     id="path26" />
  <path
     fill="#171C36"
     d="M457.498 374.296C458.614 374.462 459.196 374.631 460.288 374.936C460.875 377.107 460.467 399.383 460.318 402.829C459.596 403.904 460.069 403.462 458.639 403.899C457.474 403.523 457.262 402.917 456.56 401.869L456.288 401.455C451.281 401.265 451.508 405.94 443.031 402.247C431.426 393.535 439.93 376.866 456.498 384.976C456.415 381.808 455.83 376.654 457.498 374.296Z"
     id="path27" />
  <path
     fill="#F9FEFD"
     d="M447.602 386.087C451.372 385.154 455.195 387.415 456.194 391.168C457.194 394.922 455.001 398.784 451.266 399.85C448.79 400.557 446.125 399.872 444.297 398.059C442.468 396.246 441.76 393.588 442.446 391.106C443.131 388.624 445.102 386.705 447.602 386.087Z"
     id="path28" />
  <path
     fill="#171C36"
     d="M879.367 382.573C886.209 382.592 889.083 384.303 892.444 390.215C892.868 398.201 891.339 401.238 883.157 403.411C880.235 403.489 878.052 403.48 875.434 402.015C872.831 400.577 870.956 398.107 870.27 395.213C869.628 392.515 870.116 389.671 871.62 387.341C873.608 384.257 876.002 383.385 879.367 382.573Z"
     id="path29" />
  <path
     fill="#F9FEFD"
     d="M879.845 386.156C883.57 385.409 887.216 387.748 888.09 391.445C888.964 395.141 886.751 398.865 883.087 399.865C880.602 400.543 877.946 399.812 876.158 397.958C874.37 396.104 873.736 393.423 874.504 390.964C875.272 388.506 877.32 386.663 879.845 386.156Z"
     id="path30" />
  <path
     fill="#171C36"
     d="M401.444 376.6C403.024 376.542 403.738 376.576 405.325 376.696C407.667 377.946 417.105 398.92 418.673 402.695C417.725 404.012 418.346 403.682 416.952 404.011C414.591 403.116 412.96 399.797 411.45 397.862C410.291 396.378 409.627 396.751 407.625 396.65L396.845 396.538C395.795 399.015 395.025 401.846 392.822 403.162C391.177 403.259 390.799 403.425 389.274 402.808C389.706 399.961 399.334 382.069 401.179 377.296L401.444 376.6Z"
     id="path31" />
  <path
     fill="#F9FEFD"
     d="M403.804 381.355C405.203 382.947 409.901 391.672 409.076 393.373L405.625 393.419L398.364 393.353C400.157 389.082 401.745 385.498 403.804 381.355Z"
     id="path32" />
  <path
     fill="#171C36"
     d="M734.383 382.496C735.858 382.494 736.873 382.369 738.249 382.906L738.49 384.458C739.722 384.544 740.893 383.906 741.856 383.455C745.239 379.741 753.201 385.169 753.46 385.059C762.446 381.238 771.1 380.456 770.553 393.478C770.452 395.884 771.758 400.857 769.105 403.406C767.209 403.381 768.028 403.662 766.531 402.633C764.601 397.16 771.077 386.148 759.497 386.025L758.879 386.024C752.434 389.277 755.151 396.709 754.211 402.88L753.197 403.288C747.299 402.434 753.09 390.208 748.508 387.232C736.253 379.274 739.024 400.984 737.737 403.152C736.171 403.369 736.894 403.506 735.503 402.675C733.451 399.305 734.33 387.258 734.383 382.496Z"
     id="path33" />
  <path
     fill="#171C36"
     d="M830.496 382.626C835.051 382.421 839.237 382.323 841.65 386.98C843.585 390.714 843.678 399.256 842.53 403.192C840.841 403.65 840.946 403.629 839.198 403.46L838.837 401.951C832.585 402.134 832.128 406.299 824.952 401.142C818.197 388.356 837.629 393.628 839.022 389.615C835.719 382.329 828.933 388.66 825.092 387.012C824.379 385.687 824.53 386.411 825.02 384.718C826.301 383.224 828.478 383.07 830.496 382.626Z"
     id="path34" />
  <path
     fill="#F9FEFD"
     d="M829.143 394.545C832.042 394.432 838.434 393.268 839.068 396.639C838.362 398.409 838.222 398.393 836.898 399.684C833.786 400.777 830.497 401.211 828.332 398.332C828.042 396.46 828.303 396.218 829.143 394.545Z"
     id="path35" />
  <path
     fill="#171C36"
     d="M534.244 382.65C540.347 382.395 544.768 383.424 546.396 390.498C547.114 393.618 547.312 400.232 545.664 403.028C544.753 404.575 542.965 401.597 541.933 401.9C535.585 403.257 534.116 405.375 528.105 400.775C522.722 389.008 538.795 392.927 541.971 390.188L541.969 389.138C537.687 383.037 532.685 388.69 528.75 386.931C528.245 385.503 528.269 386.218 528.77 384.713C530.987 383.299 531.613 383.288 534.244 382.65Z"
     id="path36" />
  <path
     fill="#F9FEFD"
     d="M541.527 393.909L541.739 394.037L542.192 396.014C540.706 401.128 536.938 400.86 532.62 400.019C531.365 398.383 531.13 397.955 531.236 396.084C533.606 393.672 537.105 394.527 541.008 393.985L541.527 393.909Z"
     id="path37" />
  <path
     fill="#171C36"
     d="M697.653 376.096L698.342 376.038C701.744 375.775 707.111 375.655 709.769 377.958C710.306 379.594 710.317 378.786 709.618 380.459C706.693 381.785 702.264 378.069 698.854 379.523C696.594 380.486 694.252 381.724 695.019 384.444C699.399 389.313 710.43 388.232 712.079 395.077C713.479 400.889 706.078 402.764 702.395 403.524C699.611 403.598 690.693 402.96 689.612 399.981L690.748 398.76C695.842 396.596 700.746 402.773 706.691 398.16C707.516 396.246 707.376 397.207 707.182 395.173C704.09 390.701 692.574 392.093 690.557 385.482C688.887 380.007 693.16 377.566 697.653 376.096Z"
     id="path38" />
  <path
     fill="#191F40"
     d="M273.702 376.506C277.313 376.524 291.616 375.772 293.712 377.233C293.672 378.197 293.889 378.648 293.266 379.066C290.801 380.718 281.479 380.032 278.218 379.983C278.09 382.759 278.177 386.031 278.19 388.856L291.044 388.885L291.698 389.144C292.159 390.342 292.145 390.251 291.893 391.511C290.043 393.269 280.928 392.54 277.979 392.506C277.899 395.902 278.868 399.966 277.146 402.519C275.332 403.348 276.283 403.154 274.16 402.935C273.056 400.458 273.652 380.633 273.702 376.506Z"
     id="path39" />
  <path
     fill="#171C36"
     d="M579.579 382.63C588.986 382.587 591.642 385.66 591.734 395.483C591.757 397.964 591.476 401.789 589.616 403.581L588.356 403.371C584.097 398.838 591.978 387.421 580.568 386.129L579.866 386.056C570.71 387.794 576.038 398.064 574.084 403.05C572.572 403.498 572.336 403.321 570.792 403.045C569.794 400.518 570.128 387.629 570.261 384.227C570.312 382.932 570.417 383.264 571.552 382.367C573.168 382.632 573.471 383.367 574.831 384.743C576.889 383.491 577.269 383.266 579.579 382.63Z"
     id="path40" />
  <path
     fill="#171C36"
     d="M615.469 382.534C616.528 382.624 617.539 382.74 618.593 382.859C618.903 383.576 619.07 384.097 619.235 384.845C623.374 384.288 629.87 380.462 634.089 384.889C637.047 387.993 638.121 399.871 634.726 402.969C633.05 403.348 633.802 403.466 632.375 402.788C631.979 399.56 632.12 394.767 632.13 391.375C631.676 386.467 628.128 385.819 623.855 386.656C616.185 388.16 621.591 399.212 618.879 403.344C617.323 403.496 617.358 403.589 615.908 403.09C614.955 401.378 615.423 385.698 615.469 382.534Z"
     id="path41" />
  <path
     fill="#191F40"
     d="M780.464 382.846L783.498 382.925C786.714 385.424 781.412 399.332 788.188 399.905C802.542 401.12 793.838 386.041 798.65 382.72C800.528 382.853 799.817 382.477 801.02 383.496L801.102 385.875C801.04 391.431 801.143 397.163 801.181 402.736C780.364 404.075 780.056 403.435 780.464 382.846Z"
     id="path42" />
  <path
     fill="#171C36"
     d="M338.578 383.061C341.175 382.852 347.267 382.651 349.251 384.423C349.137 386.174 349.464 385.471 348.458 386.69C344.61 387.996 340.862 383.968 337.163 388.047C337.775 391.727 348.919 391.119 350.358 395.605C351.927 400.495 347.227 402.355 343.777 403.43C343.429 403.452 343.081 403.469 342.733 403.481C340.22 403.56 334.931 403.24 333.023 401.422C332.993 399.816 332.786 400.53 333.636 399.196C337.862 397.989 341.005 402.105 346.434 398.134L346.537 397.342C343.489 394.012 334.606 394.881 332.817 389.988C331.44 386.221 336.03 384.018 338.578 383.061Z"
     id="path43" />
  <path
     fill="#171C36"
     d="M360.752 377.632C362.72 378.224 361.95 377.701 363.26 379.076C363.311 380.168 363.365 380.965 363.499 382.048C365.465 383.466 366.116 381.846 369.223 383.042C369.77 384.143 369.625 384.177 369.415 385.431C367.762 386.348 365.457 386.091 363.484 386.09C363.334 389.972 362.249 396.961 365.456 399.443C369.582 399.74 369.502 399.129 371.158 402.555C355.244 406.035 361.369 396.25 358.661 386.44C358.523 385.941 356.213 385.802 355.565 385.705L354.972 384.823C355.198 382.83 354.739 383.507 355.964 382.467C357.591 382.581 357.685 382.806 359.024 382.162C359.022 379.28 358.697 379.388 360.752 377.632Z"
     id="path44" />
  <path
     fill="#171C36"
     d="M857.564 386.062C857.561 389.742 856.96 396.953 859.112 399.474C861.383 399.38 864.63 399.554 865.266 402.255C863.816 403.331 862.468 403.262 860.762 403.441C852.308 404.327 853.373 395.656 853.658 390.007C853.998 383.256 851.966 387.336 849.744 385.064L849.768 383.205L850.421 382.633C852.253 382.771 851.703 382.976 853.243 382.377C853.681 380.607 853.704 379.906 854.9 378.509C856.431 378.069 855.679 378.027 857.218 378.803C858.302 380.522 857.938 380.226 857.981 382.61L857.564 386.062Z"
     id="path45" />
  <path
     fill="#2B347A"
     d="M722.993 264.773C726.476 264.052 729.891 266.272 730.646 269.748C731.401 273.224 729.215 276.66 725.746 277.449C722.229 278.249 718.735 276.026 717.97 272.501C717.204 268.977 719.461 265.505 722.993 264.773Z"
     id="path46" />
  <path
     fill="#171C36"
     d="M811.275 374.985C812.733 374.963 813.373 375.041 814.799 375.196C816.109 376.64 815.493 399.84 815.476 403.527C813.658 403.569 813.167 403.687 811.435 403.025C810.868 400.943 811.247 378.607 811.275 374.985Z"
     id="path47" />
  <path
     fill="#171C36"
     d="M900.606 382.539C902.033 382.522 902.378 382.449 903.784 382.789C904.584 384.033 904.206 383.776 905.327 384.538C907.148 383.819 910.661 382.055 912.276 383.166C912.087 388.626 907.56 384.607 905.162 391.474L904.993 391.973C904.939 395.311 905.756 400.068 904.224 402.76C902.449 403.513 903.406 403.284 901.125 402.912C899.971 399.984 900.539 386.54 900.606 382.539Z"
     id="path48" />
  <path
     fill="#171C36"
     d="M315.709 382.643C316.853 382.638 317.385 382.683 318.525 382.814C319.342 384.035 319.07 383.851 320.149 384.744C322.474 383.645 325.146 382.377 327.757 383.009L328.134 384.063C325.117 389.658 322.313 383.977 320.08 391.821L319.927 392.375C319.98 395.022 320.512 401.156 319.081 403.19C317.101 403.278 317.37 403.556 315.837 402.776C315.26 397.537 315.626 388.249 315.709 382.643Z"
     id="path49" />
  <path
     fill="#171C36"
     d="M510.389 382.449L513.029 382.621C514.099 383.567 514.192 383.719 515.441 384.363C517.274 383.269 518.963 383.029 521.048 382.532L521.535 383.044L521.426 384.765C519.308 388.354 514.477 385.871 514.401 393.375C514.449 395.944 514.854 401.04 513.698 403.07C511.566 403.305 512.45 403.549 510.8 402.81C509.882 398.314 510.315 387.41 510.389 382.449Z"
     id="path50" />
  <path
     fill="#171C36"
     d="M491.516 380.043C493.18 379.557 494.371 379.423 496.125 379.991C495.971 384.651 497.014 400.015 495.078 402.826C493.22 403.187 493.984 403.407 492.599 402.663C490.686 399.165 491.489 384.987 491.516 380.043Z"
     id="path51" />
  <path
     fill="#171C36"
     d="M425.423 383.014C427.239 382.951 427.593 382.877 429.407 383.352C430.118 385.487 429.85 400.163 429.846 403.293C428.082 403.457 426.925 403.736 425.564 402.97C425.048 398.393 425.383 388.032 425.423 383.014Z"
     id="path52" />
  <path
     fill="#191F40"
     d="M557.256 382.353L559.537 382.73C560.355 384.173 560.135 390.479 560.018 392.498C559.829 395.743 560.366 401.209 558.601 403.736C557.596 403.508 556.99 403.323 556.009 403.023C554.945 401.196 555.443 386.851 555.754 383.948C555.871 382.856 556.082 383.099 557.256 382.353Z"
     id="path53" />
  <path
     fill="#191F40"
     d="M601.067 382.941C602.766 382.913 603.001 382.908 604.763 383.201C605.996 384.652 605.384 400.195 605.346 403.352C603.241 403.316 602.82 403.654 601.262 402.748C600.724 398.74 601.039 387.496 601.067 382.941Z"
     id="path54" />
  <path
     fill="#191F40"
     d="M491.516 380.043C488.38 380.082 484.988 380.318 481.97 379.656L481.543 378.54C483.441 374.728 493.582 376.643 497.66 376.309C499.68 376.143 505.323 375.904 505.891 377.954C503.528 381.039 499.578 380.196 496.125 379.991C494.371 379.423 493.18 379.557 491.516 380.043Z"
     id="path55" />
  <path
     fill="#171C36"
     d="M719.981 382.479C721.767 382.507 722.456 382.261 723.887 383.038C724.416 387.882 724.104 397.842 724.071 403.088C722.521 403.064 721.103 403.266 720.086 402.454C719.556 397.596 719.917 387.74 719.981 382.479Z"
     id="path56" />
  <path
     fill="#191F40"
     d="M301.49 382.904C303.616 383.079 304.037 382.722 305.308 383.826C305.836 388.407 305.497 398.129 305.438 403.136C303.687 403.139 302.622 403.413 301.572 402.456C301.072 397.611 301.423 388.158 301.49 382.904Z"
     id="path57" />
  <path
     fill="#171C36"
     d="M556.441 374.102C557.386 373.602 558.53 373.666 559.414 374.267C560.297 374.869 560.776 375.91 560.657 376.972C560.539 378.034 559.843 378.944 558.849 379.336C557.424 379.898 555.809 379.249 555.169 377.858C554.529 376.466 555.088 374.818 556.441 374.102Z"
     id="path58" />
  <path
     fill="#191F40"
     d="M426.823 373.836C428.889 374.373 429.762 374.569 430.686 376.479C430.367 378.259 429.755 378.555 428.4 379.776C426.236 379.07 425.347 379.027 424.534 376.795C425.297 374.731 424.984 375.414 426.823 373.836Z"
     id="path59" />
  <path
     fill="#191F40"
     d="M601.562 373.772C603.686 373.965 604.805 374.166 606.078 375.945C606.027 378.115 606.326 377.09 604.806 379.009C602.549 378.926 601.683 378.902 600.409 377.067C600.406 375.299 600.62 375.244 601.562 373.772Z"
     id="path60" />
  <path
     fill="#171C36"
     d="M720.165 374.312C721.281 373.331 722.981 373.439 723.963 374.555C724.945 375.67 724.837 377.37 723.723 378.352C722.607 379.336 720.905 379.228 719.922 378.112C718.939 376.996 719.048 375.294 720.165 374.312Z"
     id="path61" />
  <path
     fill="#191F40"
     d="M302.749 374.017C304.873 374.353 305.738 374.27 306.448 376.435C305.953 378.127 305.464 378.297 304.056 379.359C301.838 378.741 301.13 378.607 300.492 376.3C301.402 374.479 300.788 375.303 302.749 374.017Z"
     id="path62" />
  <path
     fill="#191F40"
     d="M857.981 382.61C860.222 382.558 861.832 382.245 863.699 383.36L864.23 384.113C862.441 386.615 860.452 386.054 857.564 386.062L857.981 382.61Z"
     id="path63" />
  <path
     fill="#503F63"
     d="M163.589 142.333C164.607 144.619 165.634 154.29 165.071 156.448C163.42 156.062 163.861 156.494 162.981 155.519C162.879 151.437 163.357 146.493 163.589 142.333Z"
     id="path64" />
  <path
     fill="#12AD79"
     d="M157.907 606.263C158.437 601.114 160.595 568.945 162.212 566.774C163.699 566.313 163.588 566.296 165.074 566.742C167.48 570.609 168.652 597.824 169.258 604.538C169.933 613.473 170.428 624.959 171.41 633.599C171.539 636.452 171.853 639.44 172.093 642.296C174.208 667.383 175.764 692.521 178.269 717.575C178.814 723.025 179.3 728.176 179.286 733.661C183.153 716.536 185.331 698.851 189.083 681.674C189.552 679.523 190.237 677.135 192.454 676.418C192.942 676.728 193.511 676.935 193.764 677.488C195.292 680.817 182.453 747.449 179.957 753.298C178.625 754.027 179.34 753.784 177.674 753.667C175.16 750.016 168.32 648.195 166.615 633.942C164.318 634.068 162.163 634.109 159.902 634.541C157.135 655.257 156.504 677.529 154.12 698.418C153.286 705.727 152.95 715.526 151.568 722.473L126.557 722.502L97.3549 722.568L97.0952 722.404L96.9968 717.781L96.3683 717.815C96.2612 716.921 95.1543 712.883 94.8942 711.574C93.7647 706.014 93.0042 700.386 92.6179 694.725C91.1329 671.04 96.9689 649.134 112.887 631.197C123.352 619.404 141.872 607.157 157.907 606.263Z"
     id="path65" />
  <path
     fill="#2B347A"
     d="M157.907 606.263C157.055 614.946 156.321 628.473 155.137 636.725C120.009 650.809 116.958 685.208 125.003 717.723C118.71 717.933 101.531 717.224 96.9968 717.781L96.3683 717.815C96.2612 716.921 95.1543 712.883 94.8942 711.574C93.7647 706.014 93.0042 700.386 92.6179 694.725C91.1329 671.04 96.9689 649.134 112.887 631.197C123.352 619.404 141.872 607.157 157.907 606.263Z"
     id="path66" />
  <path
     fill="#0C0F13"
     d="M155.137 636.725L147.733 717.701C140.156 717.652 132.579 717.66 125.003 717.723C116.958 685.208 120.009 650.809 155.137 636.725Z"
     id="path67" />
  <defs
     id="defs68">
    <linearGradient
       id="gradient_0"
       gradientUnits="userSpaceOnUse"
       x1="161.53278"
       y1="604.61719"
       x2="163.22787"
       y2="633.07574">
      <stop
         offset="0"
         stop-color="#103B4B"
         id="stop67" />
      <stop
         offset="1"
         stop-color="#2D2F88"
         id="stop68" />
    </linearGradient>
  </defs>
  <path
     fill="url(#gradient_0)"
     d="M162.699 603.872L164.39 604.826C165.014 614.487 166.266 624.341 166.615 633.942C164.318 634.068 162.163 634.109 159.902 634.541C161.245 624.741 162.109 613.753 162.699 603.872Z"
     id="path68" />
  <path
     fill="#074838"
     d="M163.474 596.273L164.39 604.826L162.699 603.872L163.474 596.273Z"
     id="path69" />
  <path
     fill="#2B347A"
     d="M433.928 740.908C453.7 740.821 483.29 737.433 498.46 752.815C513.552 768.118 512.765 792.185 497.739 807.525C484.903 818.641 472.038 818.498 455.924 818.506L433.911 818.48C433.645 792.623 433.65 766.765 433.928 740.908Z"
     id="path70" />
  <path
     fill="#0C0F13"
     d="M444.007 749.523C466.8 749.493 498.046 746.493 498.65 779.909C498.815 789.054 496.996 795.148 490.316 801.898C477.294 812.49 460.441 810.054 444.016 810.02L444.007 749.523Z"
     id="path71" />
  <path
     fill="#2B347A"
     d="M247.222 629.869C248.547 631.336 258.257 649.8 259.879 652.832C250.06 668.646 240.591 687.351 230.91 703.774C244.045 704.281 259.192 703.906 272.546 703.973C268.427 712.374 230.71 776.91 227.983 779.075L211.713 779.315C216.543 762.177 223.734 744.035 228.177 726.922L189.543 727.36C202.729 706.654 214.06 685.242 226.295 663.972C233.632 651.217 237.104 641.043 247.222 629.869Z"
     id="path72" />
  <path
     fill="#12AD79"
     d="M295.833 609.214C306.046 608.59 316.273 610.171 325.821 613.851C343.541 620.705 359.699 636.609 367.103 653.973C376.551 676.13 375.158 699.25 366.474 721.345C359.214 719.819 351.973 718.204 344.752 716.502C347.652 708.683 349.32 700.856 350.459 692.625C350.586 688.613 350.68 685.049 350.358 681.024C347.495 645.272 311.739 621.52 278.325 636.913C272.655 639.525 268.01 644.256 263.413 648.475C259.697 642.273 255.749 633.813 252.456 627.203C265.032 616.329 279.335 610.485 295.833 609.214Z"
     id="path73" />
  <path
     fill="#2B347A"
     d="M97.3549 722.568L126.557 722.502C129.022 727.596 131.479 732.67 134.074 737.699C148.32 765.3 172.356 786.286 199.81 799.913C197.128 806.433 193.601 816.9 191.467 823.616C184.626 820.848 177.975 817.631 171.557 813.988C137.183 794.552 107.973 760.986 97.3549 722.568Z"
     id="path74" />
  <path
     fill="#2B347A"
     d="M302.479 740.928L310.798 741.108C314.126 745.76 321.357 761.804 324.047 767.61L347.345 818.274L337.63 818.593L328.375 798.805C322.943 799.009 317.092 798.998 311.625 799.079C303.087 799.305 293.361 799.411 284.868 799.07C281.808 805.453 279.057 811.924 276.247 818.421L265.939 818.267C270.867 808.724 275.043 798.65 279.576 788.891C287.128 772.864 294.762 756.876 302.479 740.928Z"
     id="path75" />
  <path
     fill="#0C0F13"
     d="M306.291 752.276C307.706 753.4 321.792 785.176 325.227 790.561L307.823 790.568L288.498 790.407C294.679 777.815 300.611 765.102 306.291 752.276Z"
     id="path76" />
  <path
     fill="#2B347A"
     d="M666.958 760.648C675.399 759.6 686.426 760.296 692.705 766.661C700.503 774.566 698.931 786.247 699.005 796.4C699.058 803.781 699.008 811.149 699.043 818.517L689.98 818.569L689.922 811.439C688.899 812.461 687.817 813.423 686.681 814.319C676.66 822.138 658.388 820.771 650.491 810.131C647.973 805.388 646.602 797.701 650.038 793.101C659.081 780.991 677.298 786.854 688.921 784.503C692.211 775.822 684.247 769.265 675.947 768.994C666.787 768.695 661.114 769.563 653.878 775.67C652.024 772.192 651.501 771.264 648.991 768.265C654.954 763.685 659.705 761.989 666.958 760.648Z"
     id="path77" />
  <path
     fill="#0C0F13"
     d="M667.607 792.115C674.684 791.78 682.308 791.928 689.437 791.95C689.357 802.617 689.924 807.248 678.982 811.171C673.037 812.282 667.679 812.704 662.164 809.338C658.003 806.8 655.129 801.052 658.446 796.638C660.771 793.544 663.921 792.709 667.607 792.115Z"
     id="path78" />
  <path
     fill="#2B347A"
     d="M845.25 760.592C868.006 759.626 877.873 770.226 878.712 792.426C862.382 792.319 845.379 792.106 829.096 792.494C829.534 794.111 830.037 796.171 830.666 797.71C836.021 810.821 851.172 813.156 862.908 808.566C865.789 806.937 867.032 805.809 869.568 803.689C871.236 805.104 873.282 807.436 874.824 809.087C857.985 826.491 825.752 819.946 820.339 795.294C816.368 777.21 828.011 764.038 845.25 760.592Z"
     id="path79" />
  <path
     fill="#0C0F13"
     d="M844.222 768.603C857.246 767.462 866.417 771.146 869.075 785.08C864.492 785.476 858.568 785.33 853.875 785.34C845.566 785.379 837.257 785.258 828.952 784.978C832.229 775.318 834.479 772.106 844.222 768.603Z"
     id="path80" />
  <path
     fill="#2B347A"
     d="M169.258 604.538C195.473 603.536 216.869 613.21 237.021 629.653C230.83 639.002 226.895 645.176 222.664 655.774C206.879 642.564 193.364 633.087 171.41 633.599C170.428 624.959 169.933 613.473 169.258 604.538Z"
     id="path81" />
  <path
     fill="#2B347A"
     d="M390.927 741.244C398.555 741.107 406.184 741.081 413.813 741.167C413.75 743.858 413.855 746.78 413.898 749.49L369.667 749.863C369.796 758.176 369.808 766.492 369.703 774.806C380.293 774.146 398.167 774.533 409.103 774.759L409.24 783.141C397.05 783.712 381.891 783.386 369.473 783.418C369.465 787.112 368.982 808.705 370.169 810.305C383.986 809.714 401.867 810.32 415.854 810.474L415.587 818.719C397.606 818.163 377.639 818.533 359.522 818.528L359.174 741.432L390.927 741.244Z"
     id="path82" />
  <path
     fill="#2B347A"
     d="M758.513 769.602C765.035 762.986 769.863 760.743 779.314 760.407C789.885 759.492 802.669 765.837 804.185 777.442C805.82 789.96 805.086 805.593 805.095 818.493L795.78 818.454L795.74 786.489C795.295 762.887 763.358 764.466 760.003 781.665C758.322 790.286 759.041 809.039 759.031 818.541C755.921 818.52 752.609 818.644 749.482 818.709L749.208 760.483L758.479 760.531L758.513 769.602Z"
     id="path83" />
  <path
     fill="#2B347A"
     d="M544.343 741.117C565.137 740.698 586.593 740.968 607.435 740.979L607.296 749.894L580.703 749.869C580.841 763.704 580.902 777.539 580.886 791.375C580.837 800.531 580.85 809.688 580.926 818.844L571.106 818.87C570.328 797.423 570.982 771.305 571.025 749.515C562.147 749.483 553.27 749.573 544.395 749.785L544.343 741.117Z"
     id="path84" />
  <path
     fill="#2B347A"
     d="M639.271 760.161C640.584 760.113 640.155 760.048 641.345 760.43C642.503 762.664 642.028 766.749 641.948 769.438C620.616 770.423 620.939 782.683 621.394 799.77C621.556 805.841 621.456 812.421 621.491 818.533L611.614 818.576L611.531 812.625L611.562 760.49L620.582 760.566L620.519 770.284C625.416 763.896 631.549 761.15 639.271 760.161Z"
     id="path85" />
  <path
     fill="#2B347A"
     d="M922.229 760.192L923.13 760.582C923.718 763.005 923.448 766.925 923.4 769.541L922.869 769.537C916.857 769.539 912.025 769.87 907.543 774.517C903.592 778.664 902.445 784.659 902.43 790.206C902.403 799.581 902.445 808.957 902.484 818.33L892.928 818.335L892.845 812.125L893.039 760.451L901.945 760.513C901.931 763.785 901.956 767.057 902.02 770.328C902.597 769.638 903.187 768.957 903.788 768.287C909.499 761.939 914.192 760.649 922.229 760.192Z"
     id="path86" />
  <path
     fill="#2B347A"
     d="M251.212 807.703L251.597 807.735C251.433 809.773 229.163 829.853 225.908 832.648C218.976 832.106 214.856 831.181 208.127 829.354C206.945 829.172 205.805 828.942 204.634 828.711C204.822 825.285 214.589 811.559 217.6 808.701C229.552 812.197 239.067 809.507 251.212 807.703Z"
     id="path87" />
  <path
     fill="#2B347A"
     d="M718.965 760.492L728.223 760.527C728.437 779.834 728.408 799.144 728.136 818.45C725.855 818.625 721.548 818.505 719.113 818.515C718.672 799.661 719.003 779.456 718.965 760.492Z"
     id="path88" />
  <path
     fill="#EB7B3B"
     d="M209.725 784.988L225.908 785.098C217.329 800.385 206.985 816.931 198.031 832.344C195.599 836.51 193.471 839.952 190.781 843.952C192.93 835.694 196.098 826.777 198.753 818.662L209.725 784.988Z"
     id="path89" />
  <path
     fill="#F9FEFD"
     d="M652.582 853.145C654.842 853.116 655.877 853.043 658.002 853.79L661.666 855.061C662.871 853.834 662.872 853.677 664.515 853.035C666.008 853.475 665.467 853.047 666.278 854.244C667.097 860.332 667.657 872.382 664.509 877.655C661.152 883.278 649.746 882.203 645.193 878.963C644.948 877.511 645.326 877.606 646.391 875.945C650.866 879.37 664.502 879.789 662.377 870.891C657.914 872.122 652.118 873.849 647.821 871.332C643.566 868.84 641.938 862.357 644.695 858.181C646.903 854.837 648.785 854.013 652.582 853.145Z"
     id="path90" />
  <path
     fill="#0C0F13"
     d="M651.943 856.532C656.16 856.255 659.34 856.179 661.891 860.221C662.733 861.569 662.94 863.22 662.457 864.735C661.639 867.363 659.976 868.295 657.722 869.549C656.4 869.709 654.709 869.893 653.4 869.661C651.168 869.281 649.215 867.942 648.056 865.998C645.729 862.015 648.648 858.559 651.943 856.532Z"
     id="path91" />
  <path
     fill="#F9FEFD"
     d="M455.341 845.01C456.94 844.975 457.908 844.762 459.227 845.627C460.028 851.19 459.161 866.166 459.328 872.379C459.354 873.369 458.599 873.615 457.886 874.036C455.855 873.427 455.45 871.435 454.981 871.687C450.267 874.219 447.187 874.449 441.683 872.754C439.158 871.007 437.601 869.413 436.728 866.337C435.929 863.458 436.414 860.374 438.059 857.879C439.702 855.357 442.314 853.625 445.277 853.093C449.383 852.334 451.966 853.558 455.261 855.74L455.341 845.01Z"
     id="path92" />
  <path
     fill="#0C0F13"
     d="M447.155 855.978C451.178 855.515 454.839 858.336 455.416 862.344C455.994 866.351 453.278 870.091 449.288 870.783C446.604 871.248 443.88 870.218 442.175 868.093C440.471 865.968 440.055 863.085 441.091 860.566C442.126 858.047 444.449 856.289 447.155 855.978Z"
     id="path93" />
  <path
     fill="#F9FEFD"
     d="M878.501 853.557C886.879 852.866 895.66 855.637 893.01 867.043C892.291 870.136 888.429 872.394 885.545 873.542C870.018 875.27 864.452 859.791 878.501 853.557Z"
     id="path94" />
  <path
     fill="#0C0F13"
     d="M879.229 856.739C881.721 855.745 884.557 856.186 886.629 857.89C888.701 859.595 889.681 862.292 889.187 864.929C888.692 867.566 886.801 869.725 884.252 870.563C880.476 871.803 876.397 869.821 875.04 866.085C873.683 862.35 875.537 858.212 879.229 856.739Z"
     id="path95" />
  <path
     fill="#F9FEFD"
     d="M400.464 846.525C402.261 846.498 402.545 846.497 404.303 846.788C405.948 848.376 415.545 869.205 417.684 873.117C416.61 874.524 417.279 874.077 415.664 874.588C413.69 873.798 411.787 869.413 410.298 867.657C409.168 866.324 408.551 866.767 406.541 866.838L394.587 866.921C393.668 869.084 392.813 871.775 391.162 873.288C389.731 873.466 389.439 873.313 388.04 873.03C388.469 871.066 398.67 850.504 400.464 846.525Z"
     id="path96" />
  <path
     fill="#0C0F13"
     d="M402.298 851.339C403.627 852.644 407.791 861.51 408.997 863.877L405.125 863.62L396.481 863.531C398.429 859.759 400.448 855.223 402.298 851.339Z"
     id="path97" />
  <path
     fill="#F9FEFD"
     d="M733.554 853.131C736.842 853.468 735.735 852.927 737.924 854.937C744.147 852.921 746.91 851.467 752.531 855.745C763.332 850.411 771.18 852.861 770.629 865.911C770.526 868.35 770.969 870.852 770.157 873.216L769.186 873.624C761.51 872.128 773.158 856.459 759.537 856.45L758.841 856.456C751.009 859.135 756.077 869.268 753.783 873.487C752.546 873.755 752.454 873.592 751.199 873.238C747.899 869.582 751.855 862.742 749.344 858.643C747.833 856.174 743.803 855.056 741.282 856.756C735.026 860.972 738.662 867.29 737.269 872.893C736.186 873.813 736.294 873.476 734.388 873.385C732.759 871.613 733.503 856.575 733.554 853.131Z"
     id="path98" />
  <path
     fill="#F9FEFD"
     d="M832.752 853.174C842.449 853.174 843.683 857.332 843.884 866.647C843.931 868.803 843.912 871.728 842.869 873.605C841.262 873.986 841.36 873.944 839.715 873.663L839.299 871.943C833.124 872.197 833.992 877.128 825.477 871.54C819.665 859.883 836.976 863.654 839.755 860.406L839.623 859.335C834.98 853.001 826.628 860.122 825.157 855.619L825.729 854.808C828.286 853.633 830.005 853.544 832.752 853.174Z"
     id="path99" />
  <path
     fill="#0C0F13"
     d="M830.9 864.575C834.071 864.411 838.045 863.57 839.863 866.691C839.662 869.045 837.79 869.84 835.935 870.869C832.798 871.48 828.841 871.429 828.156 867.581C828.714 865.859 829.402 865.617 830.9 864.575Z"
     id="path100" />
  <path
     fill="#F9FEFD"
     d="M532.971 853.134C533.838 853.1 534.707 853.085 535.575 853.088C547.427 853.202 546.018 871.388 543.112 873.829C541.276 873.563 542.176 873.888 540.559 872.213C535.19 871.945 533.995 876.964 526.459 871.635C521.154 858.879 538.792 864.062 540.998 860.054C540.765 859.376 539.069 857.081 538.615 857.02C534.769 856.499 530.773 856.981 526.83 856.919L526.745 855.271C529.313 853.762 529.983 853.705 532.971 853.134Z"
     id="path101" />
  <path
     fill="#0C0F13"
     d="M531.695 864.539C534.611 864.423 540.062 863.373 540.488 867.029C539.673 868.924 539.283 869.129 537.748 870.608C534.557 871.216 529.811 871.45 529.205 867.29C529.859 865.647 530.253 865.533 531.695 864.539Z"
     id="path102" />
  <path
     fill="#F9FEFD"
     d="M697.91 846.58C698.561 846.534 699.212 846.508 699.864 846.503C702.41 846.495 707.007 846.878 708.855 848.759C708.828 850.184 709.055 849.56 708.095 850.672C705.004 851.498 696.735 848.249 694.734 851.416C688.595 861.129 710.496 856.704 710.983 865.081C711.413 872.477 706.093 873.337 700.465 874.056C697.557 873.933 689.491 873.255 688.72 870.07L689.536 869.198C693.32 868.421 707.752 874.913 706.542 865.196C703.011 860.763 690.806 862.966 689.408 855.736C688.267 849.842 693.067 847.761 697.91 846.58Z"
     id="path103" />
  <path
     fill="#F9FEFD"
     d="M272.354 846.537C277.882 846.49 287.159 846.105 292.215 846.857C292.845 847.847 292.626 847.283 292.399 848.791C289.957 850.862 280.349 850.061 276.49 850.015L276.461 859.531L289.609 859.556L290.759 859.847L291.094 861.114L290.442 862.035C287.316 862.982 280.059 862.623 276.413 862.577C276.452 865.017 276.966 871.673 275.544 873.444C273.743 873.459 273.836 873.759 272.593 872.919C271.876 868.298 272.312 852.244 272.354 846.537Z"
     id="path104" />
  <path
     fill="#F9FEFD"
     d="M614.438 852.895C620.341 852.888 617.237 853.62 618.762 855.419C622.866 854.303 628.746 850.947 633.029 855.092C635.915 857.885 637.22 870.445 633.987 873.322C632.319 873.629 633.023 873.834 631.747 873.028C631.429 870.185 631.537 865.846 631.529 862.875C631.28 856.365 625.531 854.923 620.498 857.722C616.258 860.08 620.24 871.469 617.667 873.478C615.92 873.564 616.212 873.764 614.773 873.068C614.068 871.424 614.429 856.04 614.438 852.895Z"
     id="path105" />
  <path
     fill="#F9FEFD"
     d="M568.981 852.982C571.77 852.947 571.736 852.611 573.14 854.76C574.691 855.335 583.234 849.982 587.464 854.95C590.495 858.509 591.991 870.329 588.496 873.377C586.783 873.632 587.486 873.846 586.247 873.009C585.959 869.86 586.089 865.194 586.089 861.912C585.443 856.612 581.151 855.11 576.452 856.585C570.532 858.442 574.104 869.707 572.124 873.371C570.684 873.556 570.779 873.582 569.394 873.175C568.403 871.338 568.95 856.439 568.981 852.982Z"
     id="path106" />
  <path
     fill="#F9FEFD"
     d="M780.482 852.979C782.033 852.986 782.595 852.894 784.076 853.441C785.822 857.752 782.093 867.281 787.831 871.1C789.357 871.436 789.647 871.505 791.143 871.057C801.443 867.973 795.272 858.275 797.74 853.186C799.237 852.918 799.161 852.84 800.563 853.366C801.464 855.031 801.112 856.051 801.08 858.147C801.128 862.38 801.399 869.055 800.918 873.074C799.827 873.842 799.64 873.556 798.011 873.571C797.403 872.688 797.486 872.718 797.314 871.674C778.661 878.329 780.241 866.588 780.482 852.979Z"
     id="path107" />
  <path
     fill="#F9FEFD"
     d="M338.755 853.094C341.49 852.922 346.617 852.966 348.506 855.054L348.01 856.252C345.109 858.241 337.876 853.79 335.199 858.752C337.647 862.302 348.455 861.751 349.616 867.06C350.716 872.09 344.836 873.32 341.192 874.025C338.823 873.846 332.469 873.546 331.659 871.045C334.356 867.276 343.313 874.259 346.249 868.275C344.24 864.528 333.358 865.555 331.847 860.492C330.457 855.837 335.391 853.917 338.755 853.094Z"
     id="path108" />
  <path
     fill="#F9FEFD"
     d="M479.473 846.955C483.973 846.784 502.047 845.74 504.353 848.616L503.959 849.658C500.969 850.217 497.548 850.055 494.464 850.053L494.44 863.25C494.506 865.87 495.005 871.263 493.671 873.244C491.552 873.366 491.766 873.719 490.524 872.732C489.96 866.777 490.317 856.379 490.363 850.079C487.285 849.99 483.075 850.83 480.503 849.558C479.851 849.236 479.719 847.872 479.473 846.955Z"
     id="path109" />
  <path
     fill="#F9FEFD"
     d="M358.027 848.789C359.303 848.767 359.81 848.841 361.085 849.006C362.256 850.311 361.882 850.322 362.112 852.503C364.243 853.806 364.6 852.343 367.822 853.268C368.31 854.679 368.26 853.948 367.744 855.533C366.307 856.482 363.842 856.13 361.994 856.085C361.995 859.492 361.34 868.292 363.208 870.419C365.198 870.504 368.075 870.015 369.6 870.773L369.823 872.496C368.544 873.513 365.707 873.955 364.02 874.026C355.117 874.4 359.325 859.925 357.449 856.444L354.522 856.061C354.21 854.803 354.241 855.461 354.867 854.044C358.276 852.028 357.841 852.553 358.027 848.789Z"
     id="path110" />
  <path
     fill="#F9FEFD"
     d="M853.642 849.146C855.04 849.078 855.499 849.088 856.892 849.216C858.155 850.535 857.753 850.239 858.027 852.496C859.578 853.73 861.055 852.756 864.057 853.444C864.757 854.662 864.567 853.99 864.262 855.589C862.515 856.785 860.286 856.291 857.944 856.191C857.941 860.487 856.235 867.914 859.969 870.503C861.958 871.052 862.562 870.739 864.666 870.287C865.284 870.52 865.09 870.605 865.567 871.513C865.307 873.14 865.675 872.467 864.347 873.555C848.736 876.305 856.38 862.462 853.56 856.313L851.407 856.064C850.785 854.845 850.979 855.513 851.284 853.888C854.01 851.759 853.515 852.42 853.642 849.146Z"
     id="path111" />
  <path
     fill="#2B347A"
     d="M720.955 737.262C723.108 736.312 725.607 736.609 727.477 738.037C729.347 739.466 730.291 741.799 729.94 744.126C729.589 746.453 728 748.404 725.792 749.218C722.522 750.423 718.887 748.814 717.58 745.584C716.273 742.353 717.768 738.669 720.955 737.262Z"
     id="path112" />
  <path
     fill="#F9FEFD"
     d="M813.329 844.599L815.095 845.25C815.182 845.461 815.617 846.462 815.643 846.988C816.06 855.448 815.882 864.486 815.445 872.956C815.143 873.383 814.841 873.81 814.539 874.237C811.323 873.229 811.654 872.506 811.706 869.025C811.82 861.355 811.245 853.422 812.143 845.823C812.538 845.415 812.934 845.007 813.329 844.599Z"
     id="path113" />
  <path
     fill="#F9FEFD"
     d="M904.819 852.985L905.339 853.604C905.346 855.042 905.152 854.552 905.795 855.693C908.051 854.366 910.62 852.455 913.109 852.98L913.535 853.994C913.268 856.083 913.734 855.315 912.482 856.578C907.547 857.379 905.697 858.465 905.547 863.814L905.537 864.375C905.6 867.235 906.494 871.804 904.26 873.486C902.395 873.653 903.17 873.901 901.784 873.011C901.22 868.996 901.401 858.192 901.649 854.023C902.583 853.201 903.398 853.286 904.819 852.985Z"
     id="path114" />
  <path
     fill="#F9FEFD"
     d="M314.531 853.189C316.22 853.137 316.56 853.048 318.234 853.426C318.451 854.646 318.421 854.635 318.829 855.806C321.487 854.109 323.54 851.85 326.385 853.612C327.808 858.798 321.892 854.058 318.73 861.495L318.508 862.028C318.553 864.879 318.923 870.943 317.921 873.344C316.642 873.722 316.502 873.575 315.146 873.382C313.869 871.585 314.483 856.478 314.531 853.189Z"
     id="path115" />
  <path
     fill="#F9FEFD"
     d="M508.98 852.816L511.15 853.08C512.457 854.067 511.875 853.499 512.405 855.629C514.021 856.592 515.502 852.954 519.536 853.092C521.059 853.881 520.6 853.284 521.239 854.661L520.932 855.333C517.247 858.345 515.841 854.761 512.519 861.537C512.446 865.179 513.302 869.572 511.929 872.631C510.5 873.581 511.273 873.372 509.52 873.224C508.198 870.685 508.898 856.606 508.98 852.816Z"
     id="path116" />
  <path
     fill="#F9FEFD"
     d="M299.953 852.957C301.903 852.992 302.506 852.655 303.863 853.551C304.402 858.243 304.076 868.53 304.038 873.658C302.494 873.679 301.096 873.856 300.131 872.945C299.591 868.327 299.915 858.019 299.953 852.957Z"
     id="path117" />
  <path
     fill="#F9FEFD"
     d="M554.326 853.468C556.128 853.527 557.018 853.237 558.308 854.057C558.808 858.147 558.506 868.926 558.479 873.52C556.846 873.575 556.136 873.725 554.605 873.11C554.062 869.363 554.317 857.812 554.326 853.468Z"
     id="path118" />
  <path
     fill="#F9FEFD"
     d="M424.184 853.446C425.815 853.456 427.113 853.28 428.199 854.184C428.755 858.629 428.367 868.998 428.27 873.843C426.419 873.606 425.735 873.838 424.445 872.879C423.954 869.563 424.221 857.725 424.184 853.446Z"
     id="path119" />
  <path
     fill="#F9FEFD"
     d="M600.029 853.425C601.865 853.465 602.448 853.215 603.904 854.036C604.444 858.483 604.157 868.774 604.138 873.672C602.652 873.609 601.352 873.776 600.238 872.91C599.704 868.644 600.003 858.168 600.029 853.425Z"
     id="path120" />
  <path
     fill="#F9FEFD"
     d="M719.319 853.415C720.97 853.398 721.314 853.279 722.88 853.841C723.68 856.507 723.287 869.356 723.251 872.875C722.121 873.87 721.572 873.653 720.285 873.417C718.468 870.994 719.258 857.277 719.319 853.415Z"
     id="path121" />
  <path
     fill="#12AD79"
     d="M96.3683 717.815L96.9968 717.781L97.0952 722.404C94.3196 722.556 90.775 723.298 90.2172 719.761C91.905 717.381 93.6241 717.854 96.3683 717.815Z"
     id="path122" />
  <path
     fill="#F9FEFD"
     d="M424.209 844.316C426.07 844.353 427.726 844.472 428.947 846.037C429.237 847.905 429.228 847.221 428.131 849.218C425.925 849.604 425.368 849.821 423.714 848.201C423.274 846.343 423.517 846.07 424.209 844.316Z"
     id="path123" />
  <path
     fill="#F9FEFD"
     d="M300.868 844.633C301.748 844.266 302.758 844.404 303.507 844.995C304.255 845.586 304.624 846.537 304.47 847.478C304.316 848.419 303.664 849.202 302.767 849.525C301.427 850.006 299.949 849.331 299.434 848.004C298.919 846.677 299.555 845.182 300.868 844.633Z"
     id="path124" />
  <path
     fill="#F9FEFD"
     d="M555.286 844.725C556.199 844.395 557.219 844.6 557.934 845.257C558.649 845.914 558.94 846.913 558.688 847.851C558.436 848.789 557.684 849.508 556.736 849.719C555.395 850.016 554.053 849.221 553.67 847.902C553.287 846.583 553.994 845.193 555.286 844.725Z"
     id="path125" />
  <path
     fill="#F9FEFD"
     d="M601.019 844.629C602.342 844.184 603.778 844.875 604.256 846.187C604.735 847.498 604.08 848.952 602.781 849.463C601.911 849.806 600.924 849.65 600.202 849.055C599.48 848.461 599.138 847.521 599.307 846.602C599.477 845.682 600.132 844.927 601.019 844.629Z"
     id="path126" />
  <path
     fill="#F9FEFD"
     d="M720.569 844.572C721.831 844.18 723.18 844.839 723.648 846.075C724.116 847.311 723.542 848.698 722.337 849.24C721.489 849.622 720.499 849.502 719.767 848.929C719.035 848.355 718.681 847.422 718.85 846.508C719.018 845.593 719.68 844.847 720.569 844.572Z"
     id="path127" />
</svg>
